<?xml version="1.0" encoding="UTF-8" standalone="no"?><!DOCTYPE svg PUBLIC "-//W3C//DTD SVG 1.1//EN" "http://www.w3.org/Graphics/SVG/1.1/DTD/svg11.dtd"><svg width="100%" height="100%" viewBox="0 0 2384 3371" version="1.1" xmlns="http://www.w3.org/2000/svg" xmlns:xlink="http://www.w3.org/1999/xlink" xml:space="preserve" xmlns:serif="http://www.serif.com/" style="fill-rule:evenodd;clip-rule:evenodd;stroke-linejoin:round;stroke-miterlimit:2;"><rect x="0" y="0" width="2383.94" height="3370.39" style="fill:#8400ff;"/><g id="elements"><path d="M1074.47,-1063.5l150.877,152.321l-76.574,74.34l-150.877,-152.321l76.574,-74.34Zm150.877,152.321l150.877,152.321l-76.574,74.34l-150.877,-152.321l76.574,-74.34Zm150.877,152.321l150.877,152.322l-76.574,74.34l-150.877,-152.322l76.574,-74.34Zm150.877,152.322l150.877,152.321l-76.574,74.34l-150.877,-152.321l76.574,-74.34Zm150.877,152.321l150.877,152.321l-76.575,74.34l-150.876,-152.321l76.574,-74.34Zm150.877,152.321l150.876,152.322l-76.574,74.34l-150.877,-152.322l76.575,-74.34Zm150.876,152.322l150.877,152.321l-76.574,74.34l-150.877,-152.321l76.574,-74.34Zm1207.02,1218.57l150.877,152.322l-76.574,74.34l-150.877,-152.321l76.574,-74.341Zm150.877,152.322l150.877,152.321l-76.574,74.34l-150.877,-152.321l76.574,-74.34Zm150.877,152.321l150.877,152.322l-76.575,74.34l-150.876,-152.322l76.574,-74.34Zm150.877,152.322l150.876,152.321l-76.574,74.34l-150.877,-152.321l76.575,-74.34Zm150.876,152.321l150.877,152.321l-76.574,74.34l-150.877,-152.321l76.574,-74.34Zm150.877,152.321l150.877,152.322l-76.574,74.34l-150.877,-152.322l76.574,-74.34Zm150.877,152.322l150.877,152.321l-76.574,74.34l-150.877,-152.321l76.574,-74.34Zm-3094.11,-2972.09l150.877,152.321l-76.574,74.34l-150.877,-152.321l76.574,-74.34Zm905.261,913.928l150.877,152.321l-76.574,74.34l-150.877,-152.321l76.574,-74.34Zm301.754,304.643l150.877,152.321l-76.574,74.34l-150.877,-152.321l76.574,-74.34Zm452.631,456.964l150.877,152.321l-76.574,74.34l-150.877,-152.321l76.574,-74.34Zm150.877,152.321l150.877,152.321l-76.574,74.34l-150.877,-152.321l76.574,-74.34Zm301.754,304.643l150.877,152.321l-76.575,74.34l-150.876,-152.321l76.574,-74.34Zm905.261,913.928l150.877,152.321l-76.574,74.34l-150.877,-152.321l76.574,-74.34Zm-3094.11,-2972.09l150.877,152.321l-76.574,74.34l-150.877,-152.321l76.574,-74.34Zm301.754,304.643l150.877,152.321l-76.575,74.34l-150.877,-152.321l76.575,-74.34Zm150.877,152.321l150.876,152.321l-76.574,74.34l-150.877,-152.321l76.575,-74.34Zm150.876,152.321l150.877,152.322l-76.574,74.34l-150.877,-152.322l76.574,-74.34Zm301.754,304.643l150.877,152.321l-76.574,74.34l-150.877,-152.321l76.574,-74.34Zm452.631,456.964l150.877,152.321l-76.574,74.341l-150.877,-152.322l76.574,-74.34Zm301.754,304.643l150.877,152.321l-76.574,74.34l-150.877,-152.321l76.574,-74.34Zm452.631,456.964l150.876,152.321l-76.574,74.34l-150.877,-152.321l76.575,-74.34Zm301.753,304.642l150.877,152.322l-76.574,74.34l-150.877,-152.321l76.574,-74.341Zm150.877,152.322l150.877,152.321l-76.574,74.34l-150.877,-152.321l76.574,-74.34Zm150.877,152.321l150.877,152.322l-76.574,74.34l-150.877,-152.322l76.574,-74.34Zm301.754,304.643l150.877,152.321l-76.574,74.34l-150.877,-152.321l76.574,-74.34Zm-3094.11,-2972.09l150.877,152.321l-76.575,74.34l-150.876,-152.321l76.574,-74.34Zm301.753,304.643l150.877,152.321l-76.574,74.34l-150.877,-152.321l76.574,-74.34Zm150.877,152.321l150.877,152.321l-76.574,74.341l-150.877,-152.322l76.574,-74.34Zm150.877,152.321l150.877,152.322l-76.574,74.34l-150.877,-152.321l76.574,-74.341Zm301.754,304.643l150.877,152.321l-76.574,74.341l-150.877,-152.322l76.574,-74.34Zm301.754,304.643l150.877,152.321l-76.574,74.34l-150.877,-152.321l76.574,-74.34Zm150.877,152.321l150.877,152.322l-76.574,74.34l-150.877,-152.322l76.574,-74.34Zm301.754,304.643l150.877,152.321l-76.574,74.34l-150.877,-152.321l76.574,-74.34Zm150.877,152.321l150.877,152.322l-76.575,74.34l-150.876,-152.322l76.574,-74.34Zm301.753,304.643l150.877,152.321l-76.574,74.34l-150.877,-152.321l76.574,-74.34Zm301.754,304.643l150.877,152.321l-76.574,74.34l-150.877,-152.321l76.574,-74.34Zm150.877,152.321l150.877,152.321l-76.574,74.34l-150.877,-152.321l76.574,-74.34Zm150.877,152.321l150.877,152.322l-76.574,74.34l-150.877,-152.322l76.574,-74.34Zm301.754,304.643l150.877,152.321l-76.574,74.341l-150.877,-152.322l76.574,-74.34Zm-3094.11,-2972.09l150.876,152.321l-76.574,74.341l-150.877,-152.322l76.575,-74.34Zm301.753,304.643l150.877,152.321l-76.574,74.34l-150.877,-152.321l76.574,-74.34Zm150.877,152.321l150.877,152.322l-76.574,74.34l-150.877,-152.322l76.574,-74.34Zm150.877,152.322l150.877,152.321l-76.574,74.34l-150.877,-152.321l76.574,-74.34Zm301.754,304.642l150.877,152.322l-76.574,74.34l-150.877,-152.322l76.574,-74.34Zm603.508,609.286l150.877,152.321l-76.574,74.34l-150.877,-152.321l76.574,-74.34Zm603.507,609.285l150.877,152.321l-76.574,74.341l-150.877,-152.322l76.574,-74.34Zm301.754,304.643l150.877,152.321l-76.574,74.34l-150.877,-152.321l76.574,-74.34Zm150.877,152.321l150.877,152.321l-76.574,74.341l-150.877,-152.322l76.574,-74.34Zm150.877,152.321l150.877,152.322l-76.574,74.34l-150.877,-152.321l76.574,-74.341Zm301.754,304.643l150.877,152.322l-76.574,74.34l-150.877,-152.322l76.574,-74.34Zm-3094.11,-2972.09l150.877,152.322l-76.574,74.34l-150.877,-152.322l76.574,-74.34Zm905.262,913.928l150.877,152.322l-76.574,74.34l-150.877,-152.321l76.574,-74.341Zm301.754,304.643l150.877,152.321l-76.574,74.341l-150.877,-152.322l76.574,-74.34Zm150.877,152.321l150.877,152.322l-76.575,74.34l-150.876,-152.321l76.574,-74.341Zm150.877,152.322l150.877,152.321l-76.575,74.34l-150.877,-152.321l76.575,-74.34Zm150.877,152.321l150.876,152.322l-76.574,74.34l-150.877,-152.322l76.575,-74.34Zm150.876,152.322l150.877,152.321l-76.574,74.34l-150.877,-152.321l76.574,-74.34Zm301.754,304.642l150.877,152.322l-76.574,74.34l-150.877,-152.322l76.574,-74.34Zm905.262,913.928l150.877,152.322l-76.574,74.34l-150.877,-152.322l76.574,-74.34Zm-3094.11,-2972.09l150.877,152.322l-76.574,74.34l-150.877,-152.321l76.574,-74.341Zm150.877,152.322l150.877,152.321l-76.574,74.34l-150.877,-152.321l76.574,-74.34Zm150.877,152.321l150.877,152.321l-76.574,74.341l-150.877,-152.322l76.574,-74.34Zm150.877,152.321l150.877,152.322l-76.574,74.34l-150.877,-152.321l76.574,-74.341Zm150.877,152.322l150.877,152.321l-76.574,74.34l-150.877,-152.321l76.574,-74.34Zm150.877,152.321l150.877,152.322l-76.574,74.34l-150.877,-152.322l76.574,-74.34Zm150.877,152.322l150.877,152.321l-76.574,74.34l-150.877,-152.321l76.574,-74.34Zm301.754,304.642l150.877,152.322l-76.575,74.34l-150.876,-152.322l76.574,-74.34Zm301.753,304.643l150.877,152.321l-76.574,74.34l-150.877,-152.321l76.574,-74.34Zm301.754,304.643l150.877,152.321l-76.574,74.34l-150.877,-152.321l76.574,-74.34Zm301.754,304.642l150.877,152.322l-76.574,74.34l-150.877,-152.321l76.574,-74.341Zm150.877,152.322l150.877,152.321l-76.574,74.34l-150.877,-152.321l76.574,-74.34Zm150.877,152.321l150.877,152.321l-76.574,74.341l-150.877,-152.322l76.574,-74.34Zm150.877,152.321l150.877,152.322l-76.574,74.34l-150.877,-152.321l76.574,-74.341Zm150.877,152.322l150.877,152.321l-76.574,74.34l-150.877,-152.321l76.574,-74.34Zm150.877,152.321l150.877,152.321l-76.574,74.341l-150.877,-152.322l76.574,-74.34Zm150.877,152.321l150.877,152.322l-76.575,74.34l-150.876,-152.321l76.574,-74.341Zm-1585.34,-1448.87l150.877,152.321l-76.574,74.341l-150.877,-152.322l76.574,-74.34Zm150.877,152.321l150.877,152.322l-76.574,74.34l-150.877,-152.321l76.574,-74.341Zm150.877,152.322l150.877,152.321l-76.574,74.34l-150.877,-152.321l76.574,-74.34Zm-1887.1,-1753.52l150.877,152.321l-76.574,74.34l-150.877,-152.321l76.574,-74.34Zm150.877,152.321l150.877,152.321l-76.574,74.341l-150.877,-152.322l76.574,-74.34Zm150.877,152.321l150.877,152.322l-76.574,74.34l-150.877,-152.321l76.574,-74.341Zm150.877,152.322l150.877,152.321l-76.574,74.34l-150.877,-152.321l76.574,-74.34Zm150.877,152.321l150.877,152.321l-76.574,74.341l-150.877,-152.322l76.574,-74.34Zm301.754,304.643l150.877,152.321l-76.575,74.34l-150.877,-152.321l76.575,-74.34Zm150.877,152.321l150.876,152.322l-76.574,74.34l-150.877,-152.322l76.575,-74.34Zm150.876,152.322l150.877,152.321l-76.574,74.34l-150.877,-152.321l76.574,-74.34Zm150.877,152.321l150.877,152.321l-76.574,74.34l-150.877,-152.321l76.574,-74.34Zm452.631,456.964l150.877,152.321l-76.574,74.34l-150.877,-152.321l76.574,-74.34Zm150.877,152.321l150.877,152.322l-76.574,74.34l-150.877,-152.322l76.574,-74.34Zm301.754,304.643l150.877,152.321l-76.574,74.34l-150.877,-152.321l76.574,-74.34Zm301.754,304.643l150.877,152.321l-76.575,74.34l-150.876,-152.321l76.574,-74.34Zm301.753,304.642l150.877,152.322l-76.574,74.34l-150.877,-152.321l76.574,-74.341Zm-1887.1,-1753.52l150.877,152.322l-76.574,74.34l-150.877,-152.322l76.574,-74.34Zm150.877,152.322l150.877,152.321l-76.574,74.34l-150.877,-152.321l76.574,-74.34Zm150.877,152.321l150.877,152.321l-76.574,74.341l-150.877,-152.322l76.574,-74.34Zm150.877,152.321l150.877,152.322l-76.574,74.34l-150.877,-152.321l76.574,-74.341Zm754.385,761.607l150.877,152.321l-76.574,74.341l-150.877,-152.322l76.574,-74.34Zm150.877,152.321l150.877,152.322l-76.575,74.34l-150.876,-152.321l76.574,-74.341Zm301.753,304.643l150.877,152.322l-76.574,74.34l-150.877,-152.322l76.574,-74.34Zm150.877,152.322l150.877,152.321l-76.574,74.34l-150.877,-152.321l76.574,-74.34Zm150.877,152.321l150.877,152.321l-76.574,74.34l-150.877,-152.321l76.574,-74.34Zm-3094.11,-2972.09l150.877,152.321l-76.574,74.34l-150.877,-152.321l76.574,-74.34Zm301.754,304.643l150.877,152.321l-76.574,74.34l-150.877,-152.321l76.574,-74.34Zm301.754,304.642l150.876,152.322l-76.574,74.34l-150.877,-152.321l76.575,-74.341Zm150.876,152.322l150.877,152.321l-76.574,74.34l-150.877,-152.321l76.574,-74.34Zm150.877,152.321l150.877,152.321l-76.574,74.341l-150.877,-152.322l76.574,-74.34Zm150.877,152.321l150.877,152.322l-76.574,74.34l-150.877,-152.321l76.574,-74.341Zm150.877,152.322l150.877,152.321l-76.574,74.34l-150.877,-152.321l76.574,-74.34Zm150.877,152.321l150.877,152.322l-76.574,74.34l-150.877,-152.322l76.574,-74.34Zm301.754,304.643l150.877,152.321l-76.574,74.34l-150.877,-152.321l76.574,-74.34Zm150.877,152.321l150.877,152.322l-76.574,74.34l-150.877,-152.322l76.574,-74.34Zm452.631,456.964l150.877,152.322l-76.575,74.34l-150.876,-152.322l76.574,-74.34Zm603.507,609.286l150.877,152.321l-76.574,74.34l-150.877,-152.321l76.574,-74.34Zm-2792.36,-2667.45l150.877,152.322l-76.574,74.34l-150.877,-152.321l76.574,-74.341Zm603.507,609.286l150.877,152.321l-76.574,74.34l-150.877,-152.321l76.574,-74.34Zm603.508,609.285l150.877,152.322l-76.574,74.34l-150.877,-152.322l76.574,-74.34Zm150.877,152.322l150.877,152.321l-76.574,74.34l-150.877,-152.321l76.574,-74.34Zm301.754,304.642l150.877,152.322l-76.574,74.34l-150.877,-152.321l76.574,-74.341Zm150.877,152.322l150.877,152.321l-76.575,74.34l-150.876,-152.321l76.574,-74.34Zm452.63,456.964l150.877,152.321l-76.574,74.34l-150.877,-152.321l76.574,-74.34Zm301.754,304.642l150.877,152.322l-76.574,74.34l-150.877,-152.321l76.574,-74.341Zm150.877,152.322l150.877,152.321l-76.574,74.34l-150.877,-152.321l76.574,-74.34Zm-2641.48,-2515.12l150.876,152.321l-76.574,74.34l-150.877,-152.321l76.575,-74.34Zm150.876,152.321l150.877,152.322l-76.574,74.34l-150.877,-152.322l76.574,-74.34Zm452.631,456.964l150.877,152.322l-76.574,74.34l-150.877,-152.321l76.574,-74.341Zm150.877,152.322l150.877,152.321l-76.574,74.34l-150.877,-152.321l76.574,-74.34Zm452.631,456.964l150.877,152.321l-76.574,74.34l-150.877,-152.321l76.574,-74.34Zm301.754,304.643l150.877,152.321l-76.575,74.34l-150.876,-152.321l76.574,-74.34Zm301.753,304.642l150.877,152.322l-76.574,74.34l-150.877,-152.322l76.574,-74.34Zm301.754,304.643l150.877,152.321l-76.574,74.34l-150.877,-152.321l76.574,-74.34Zm-1283.59,-1144.23l150.877,152.322l-76.574,74.34l-150.877,-152.322l76.574,-74.34Zm452.631,456.964l150.877,152.322l-76.575,74.34l-150.876,-152.322l76.574,-74.34Zm452.63,456.964l150.877,152.322l-76.574,74.34l-150.877,-152.321l76.574,-74.341Zm150.877,152.322l150.877,152.321l-76.574,74.34l-150.877,-152.321l76.574,-74.34Zm150.877,152.321l150.877,152.321l-76.574,74.341l-150.877,-152.322l76.574,-74.34Zm150.877,152.321l150.877,152.322l-76.574,74.34l-150.877,-152.321l76.574,-74.341Zm301.754,304.643l150.877,152.321l-76.574,74.341l-150.877,-152.322l76.574,-74.34Zm150.877,152.321l150.877,152.322l-76.574,74.34l-150.877,-152.321l76.574,-74.341Zm-3094.11,-2972.09l150.877,152.321l-76.574,74.34l-150.877,-152.321l76.574,-74.34Zm150.877,152.321l150.877,152.321l-76.574,74.34l-150.877,-152.321l76.574,-74.34Zm150.877,152.321l150.877,152.322l-76.574,74.34l-150.877,-152.322l76.574,-74.34Zm150.877,152.322l150.877,152.321l-76.574,74.34l-150.877,-152.321l76.574,-74.34Zm150.877,152.321l150.877,152.321l-76.574,74.34l-150.877,-152.321l76.574,-74.34Zm150.877,152.321l150.877,152.322l-76.574,74.34l-150.877,-152.322l76.574,-74.34Zm150.877,152.322l150.877,152.321l-76.574,74.34l-150.877,-152.321l76.574,-74.34Zm301.754,304.642l150.877,152.322l-76.574,74.34l-150.877,-152.321l76.574,-74.341Zm301.754,304.643l150.877,152.321l-76.575,74.341l-150.877,-152.322l76.575,-74.34Zm150.877,152.321l150.876,152.322l-76.574,74.34l-150.877,-152.321l76.575,-74.341Zm150.876,152.322l150.877,152.321l-76.574,74.34l-150.877,-152.321l76.574,-74.34Zm754.385,761.607l150.877,152.321l-76.574,74.34l-150.877,-152.321l76.574,-74.34Zm150.877,152.321l150.877,152.321l-76.574,74.34l-150.877,-152.321l76.574,-74.34Zm150.877,152.321l150.877,152.322l-76.574,74.34l-150.877,-152.322l76.574,-74.34Zm-2943.24,-2819.76l150.877,152.321l-76.574,74.34l-150.877,-152.321l76.574,-74.34Zm905.262,913.928l150.877,152.321l-76.574,74.34l-150.877,-152.321l76.574,-74.34Zm603.507,609.285l150.877,152.322l-76.574,74.34l-150.877,-152.322l76.574,-74.34Zm150.877,152.322l150.877,152.321l-76.574,74.34l-150.877,-152.321l76.574,-74.34Zm150.877,152.321l150.877,152.321l-76.574,74.34l-150.877,-152.321l76.574,-74.34Zm150.877,152.321l150.877,152.322l-76.574,74.34l-150.877,-152.322l76.574,-74.34Zm301.754,304.643l150.877,152.321l-76.574,74.341l-150.877,-152.322l76.574,-74.34Zm301.754,304.643l150.877,152.321l-76.574,74.34l-150.877,-152.321l76.574,-74.34Zm150.877,152.321l150.877,152.321l-76.574,74.341l-150.877,-152.322l76.574,-74.34Zm-2792.36,-2667.44l150.877,152.321l-76.574,74.34l-150.877,-152.321l76.574,-74.34Zm301.754,304.643l150.877,152.321l-76.574,74.34l-150.877,-152.321l76.574,-74.34Zm150.877,152.321l150.877,152.321l-76.574,74.34l-150.877,-152.321l76.574,-74.34Zm150.877,152.321l150.877,152.322l-76.574,74.34l-150.877,-152.322l76.574,-74.34Zm301.754,304.643l150.877,152.321l-76.574,74.34l-150.877,-152.321l76.574,-74.34Zm301.754,304.643l150.876,152.321l-76.574,74.34l-150.877,-152.321l76.575,-74.34Zm150.876,152.321l150.877,152.321l-76.574,74.341l-150.877,-152.322l76.574,-74.34Zm301.754,304.643l150.877,152.321l-76.574,74.34l-150.877,-152.321l76.574,-74.34Zm150.877,152.321l150.877,152.321l-76.574,74.341l-150.877,-152.322l76.574,-74.34Zm301.754,304.643l150.877,152.321l-76.574,74.34l-150.877,-152.321l76.574,-74.34Zm452.631,456.964l150.877,152.321l-76.574,74.34l-150.877,-152.321l76.574,-74.34Zm-2641.48,-2515.12l150.877,152.321l-76.574,74.341l-150.877,-152.322l76.574,-74.34Zm301.754,304.643l150.877,152.321l-76.574,74.34l-150.877,-152.321l76.574,-74.34Zm150.877,152.321l150.877,152.321l-76.574,74.341l-150.877,-152.322l76.574,-74.34Zm150.877,152.321l150.877,152.322l-76.574,74.34l-150.877,-152.321l76.574,-74.341Zm301.754,304.643l150.877,152.321l-76.575,74.341l-150.876,-152.322l76.574,-74.34Zm301.753,304.643l150.877,152.321l-76.574,74.34l-150.877,-152.321l76.574,-74.34Zm150.877,152.321l150.877,152.322l-76.574,74.34l-150.877,-152.322l76.574,-74.34Zm603.508,609.286l150.877,152.321l-76.574,74.34l-150.877,-152.321l76.574,-74.34Zm150.877,152.321l150.877,152.321l-76.574,74.34l-150.877,-152.321l76.574,-74.34Zm301.754,304.643l150.877,152.321l-76.574,74.34l-150.877,-152.321l76.574,-74.34Zm452.631,456.964l150.876,152.321l-76.574,74.34l-150.877,-152.321l76.575,-74.34Zm-2943.24,-2819.77l150.877,152.322l-76.574,74.34l-150.877,-152.322l76.574,-74.34Zm301.754,304.643l150.877,152.321l-76.574,74.34l-150.877,-152.321l76.574,-74.34Zm150.877,152.321l150.877,152.322l-76.574,74.34l-150.877,-152.322l76.574,-74.34Zm150.877,152.322l150.877,152.321l-76.575,74.34l-150.876,-152.321l76.574,-74.34Zm301.754,304.642l150.876,152.322l-76.574,74.34l-150.877,-152.322l76.575,-74.34Zm301.753,304.643l150.877,152.321l-76.574,74.34l-150.877,-152.321l76.574,-74.34Zm150.877,152.321l150.877,152.322l-76.574,74.34l-150.877,-152.322l76.574,-74.34Zm301.754,304.643l150.877,152.321l-76.574,74.341l-150.877,-152.322l76.574,-74.34Zm150.877,152.321l150.877,152.322l-76.574,74.34l-150.877,-152.321l76.574,-74.341Zm150.877,152.322l150.877,152.321l-76.574,74.34l-150.877,-152.321l76.574,-74.34Zm150.877,152.321l150.877,152.321l-76.574,74.341l-150.877,-152.322l76.574,-74.34Zm452.631,456.964l150.876,152.322l-76.574,74.34l-150.877,-152.322l76.575,-74.34Zm150.876,152.322l150.877,152.321l-76.574,74.34l-150.877,-152.321l76.574,-74.34Zm-2792.36,-2667.45l150.877,152.322l-76.574,74.34l-150.877,-152.322l76.574,-74.34Zm905.261,913.928l150.877,152.322l-76.574,74.34l-150.877,-152.321l76.574,-74.341Zm301.754,304.643l150.877,152.321l-76.574,74.341l-150.877,-152.322l76.574,-74.34Zm301.754,304.643l150.877,152.321l-76.574,74.34l-150.877,-152.321l76.574,-74.34Zm150.877,152.321l150.877,152.322l-76.574,74.34l-150.877,-152.322l76.574,-74.34Zm150.877,152.322l150.877,152.321l-76.574,74.34l-150.877,-152.321l76.574,-74.34Zm150.877,152.321l150.877,152.321l-76.574,74.34l-150.877,-152.321l76.574,-74.34Zm301.754,304.643l150.877,152.321l-76.575,74.34l-150.876,-152.321l76.574,-74.34Zm301.753,304.642l150.877,152.322l-76.574,74.34l-150.877,-152.322l76.574,-74.34Zm150.877,152.322l150.877,152.321l-76.574,74.34l-150.877,-152.321l76.574,-74.34Zm-2792.36,-2667.45l150.877,152.322l-76.574,74.34l-150.877,-152.321l76.574,-74.341Zm150.877,152.322l150.877,152.321l-76.574,74.34l-150.877,-152.321l76.574,-74.34Zm150.877,152.321l150.877,152.321l-76.575,74.341l-150.876,-152.322l76.574,-74.34Zm150.877,152.321l150.876,152.322l-76.574,74.34l-150.877,-152.321l76.575,-74.341Zm150.876,152.322l150.877,152.321l-76.574,74.34l-150.877,-152.321l76.574,-74.34Zm150.877,152.321l150.877,152.322l-76.574,74.34l-150.877,-152.322l76.574,-74.34Zm150.877,152.322l150.877,152.321l-76.574,74.34l-150.877,-152.321l76.574,-74.34Zm301.754,304.642l150.877,152.322l-76.574,74.34l-150.877,-152.322l76.574,-74.34Zm150.877,152.322l150.877,152.321l-76.574,74.34l-150.877,-152.321l76.574,-74.34Zm150.877,152.321l150.877,152.321l-76.574,74.34l-150.877,-152.321l76.574,-74.34Zm150.877,152.321l150.877,152.322l-76.574,74.34l-150.877,-152.322l76.574,-74.34Zm452.631,456.964l150.877,152.322l-76.575,74.34l-150.876,-152.321l76.574,-74.341Zm150.877,152.322l150.876,152.321l-76.574,74.34l-150.877,-152.321l76.575,-74.34Zm301.753,304.642l150.877,152.322l-76.574,74.34l-150.877,-152.321l76.574,-74.341Zm301.754,304.643l150.877,152.321l-76.574,74.341l-150.877,-152.322l76.574,-74.34Z" style="fill-rule:nonzero;"/></g><g id="elements1" serif:id="elements"><path d="M-487.265,21.177l150.877,152.322l-76.574,74.34l-150.877,-152.321l76.574,-74.341Zm150.877,152.322l150.877,152.321l-76.574,74.34l-150.877,-152.321l76.574,-74.34Zm150.877,152.321l150.877,152.322l-76.574,74.34l-150.877,-152.322l76.574,-74.34Zm150.877,152.322l150.877,152.321l-76.574,74.34l-150.877,-152.321l76.574,-74.34Zm150.877,152.321l150.877,152.321l-76.575,74.34l-150.876,-152.321l76.574,-74.34Zm150.877,152.321l150.877,152.322l-76.575,74.34l-150.877,-152.322l76.575,-74.34Zm150.877,152.322l150.876,152.321l-76.574,74.34l-150.877,-152.321l76.575,-74.34Zm1207.02,1218.57l150.877,152.322l-76.574,74.34l-150.877,-152.321l76.574,-74.341Zm150.877,152.322l150.877,152.321l-76.574,74.34l-150.877,-152.321l76.574,-74.34Zm150.877,152.321l150.877,152.321l-76.575,74.341l-150.876,-152.322l76.574,-74.34Zm150.877,152.321l150.876,152.322l-76.574,74.34l-150.877,-152.321l76.575,-74.341Zm150.876,152.322l150.877,152.321l-76.574,74.34l-150.877,-152.321l76.574,-74.34Zm150.877,152.321l150.877,152.322l-76.574,74.34l-150.877,-152.322l76.574,-74.34Zm150.877,152.322l150.877,152.321l-76.574,74.34l-150.877,-152.321l76.574,-74.34Zm-3094.11,-2972.09l150.877,152.321l-76.574,74.34l-150.877,-152.321l76.574,-74.34Zm905.261,913.928l150.877,152.321l-76.574,74.34l-150.877,-152.321l76.574,-74.34Zm301.754,304.642l150.877,152.322l-76.574,74.34l-150.877,-152.321l76.574,-74.341Zm452.631,456.964l150.877,152.322l-76.574,74.34l-150.877,-152.321l76.574,-74.341Zm150.877,152.322l150.877,152.321l-76.574,74.34l-150.877,-152.321l76.574,-74.34Zm301.754,304.643l150.877,152.321l-76.574,74.34l-150.877,-152.321l76.574,-74.34Zm905.261,913.928l150.877,152.321l-76.574,74.34l-150.877,-152.321l76.574,-74.34Zm-3094.11,-2972.09l150.877,152.321l-76.574,74.34l-150.877,-152.321l76.574,-74.34Zm301.754,304.642l150.877,152.322l-76.575,74.34l-150.876,-152.321l76.574,-74.341Zm150.877,152.322l150.876,152.321l-76.574,74.34l-150.877,-152.321l76.575,-74.34Zm150.876,152.321l150.877,152.322l-76.574,74.34l-150.877,-152.322l76.574,-74.34Zm301.754,304.643l150.877,152.321l-76.574,74.34l-150.877,-152.321l76.574,-74.34Zm452.631,456.964l150.877,152.321l-76.574,74.34l-150.877,-152.321l76.574,-74.34Zm301.754,304.643l150.877,152.321l-76.574,74.34l-150.877,-152.321l76.574,-74.34Zm452.631,456.964l150.877,152.321l-76.575,74.34l-150.877,-152.321l76.575,-74.34Zm301.753,304.642l150.877,152.322l-76.574,74.34l-150.877,-152.321l76.574,-74.341Zm150.877,152.322l150.877,152.321l-76.574,74.34l-150.877,-152.321l76.574,-74.34Zm150.877,152.321l150.877,152.321l-76.574,74.341l-150.877,-152.322l76.574,-74.34Zm301.754,304.643l150.877,152.321l-76.574,74.34l-150.877,-152.321l76.574,-74.34Zm-3094.11,-2972.09l150.877,152.321l-76.575,74.34l-150.876,-152.321l76.574,-74.34Zm301.754,304.643l150.876,152.321l-76.574,74.34l-150.877,-152.321l76.575,-74.34Zm150.876,152.321l150.877,152.321l-76.574,74.34l-150.877,-152.321l76.574,-74.34Zm150.877,152.321l150.877,152.322l-76.574,74.34l-150.877,-152.322l76.574,-74.34Zm301.754,304.643l150.877,152.321l-76.574,74.341l-150.877,-152.322l76.574,-74.34Zm301.754,304.643l150.877,152.321l-76.574,74.34l-150.877,-152.321l76.574,-74.34Zm150.877,152.321l150.877,152.321l-76.574,74.341l-150.877,-152.322l76.574,-74.34Zm301.754,304.643l150.877,152.321l-76.574,74.34l-150.877,-152.321l76.574,-74.34Zm150.877,152.321l150.877,152.321l-76.575,74.341l-150.876,-152.322l76.574,-74.34Zm301.753,304.643l150.877,152.321l-76.574,74.34l-150.877,-152.321l76.574,-74.34Zm301.754,304.643l150.877,152.321l-76.574,74.34l-150.877,-152.321l76.574,-74.34Zm150.877,152.321l150.877,152.321l-76.574,74.34l-150.877,-152.321l76.574,-74.34Zm150.877,152.321l150.877,152.322l-76.574,74.34l-150.877,-152.322l76.574,-74.34Zm301.754,304.643l150.877,152.321l-76.574,74.34l-150.877,-152.321l76.574,-74.34Zm-3094.11,-2972.09l150.876,152.321l-76.574,74.341l-150.877,-152.322l76.575,-74.34Zm301.753,304.643l150.877,152.321l-76.574,74.34l-150.877,-152.321l76.574,-74.34Zm150.877,152.321l150.877,152.321l-76.574,74.341l-150.877,-152.322l76.574,-74.34Zm150.877,152.321l150.877,152.322l-76.574,74.34l-150.877,-152.321l76.574,-74.341Zm301.754,304.643l150.877,152.322l-76.574,74.34l-150.877,-152.322l76.574,-74.34Zm603.508,609.286l150.877,152.321l-76.574,74.34l-150.877,-152.321l76.574,-74.34Zm603.507,609.285l150.877,152.321l-76.574,74.34l-150.877,-152.321l76.574,-74.34Zm301.754,304.643l150.877,152.321l-76.574,74.34l-150.877,-152.321l76.574,-74.34Zm150.877,152.321l150.877,152.321l-76.574,74.341l-150.877,-152.322l76.574,-74.34Zm150.877,152.321l150.877,152.322l-76.574,74.34l-150.877,-152.321l76.574,-74.341Zm301.754,304.643l150.877,152.321l-76.574,74.341l-150.877,-152.322l76.574,-74.34Zm-3094.11,-2972.09l150.877,152.322l-76.574,74.34l-150.877,-152.322l76.574,-74.34Zm905.262,913.928l150.877,152.322l-76.574,74.34l-150.877,-152.322l76.574,-74.34Zm301.754,304.643l150.877,152.321l-76.574,74.34l-150.877,-152.321l76.574,-74.34Zm150.877,152.321l150.877,152.322l-76.574,74.34l-150.877,-152.322l76.574,-74.34Zm150.877,152.322l150.877,152.321l-76.575,74.34l-150.876,-152.321l76.574,-74.34Zm150.877,152.321l150.876,152.321l-76.574,74.341l-150.877,-152.322l76.575,-74.34Zm150.876,152.321l150.877,152.322l-76.574,74.34l-150.877,-152.321l76.574,-74.341Zm301.754,304.643l150.877,152.321l-76.574,74.341l-150.877,-152.322l76.574,-74.34Zm905.262,913.928l150.877,152.322l-76.574,74.34l-150.877,-152.322l76.574,-74.34Zm-3094.11,-2972.09l150.877,152.322l-76.574,74.34l-150.877,-152.322l76.574,-74.34Zm150.877,152.322l150.877,152.321l-76.574,74.34l-150.877,-152.321l76.574,-74.34Zm150.877,152.321l150.877,152.321l-76.574,74.341l-150.877,-152.322l76.574,-74.34Zm150.877,152.321l150.877,152.322l-76.574,74.34l-150.877,-152.321l76.574,-74.341Zm150.877,152.322l150.877,152.321l-76.574,74.34l-150.877,-152.321l76.574,-74.34Zm150.877,152.321l150.877,152.321l-76.574,74.341l-150.877,-152.322l76.574,-74.34Zm150.877,152.321l150.877,152.322l-76.574,74.34l-150.877,-152.321l76.574,-74.341Zm301.754,304.643l150.877,152.321l-76.575,74.341l-150.876,-152.322l76.574,-74.34Zm301.754,304.643l150.876,152.321l-76.574,74.34l-150.877,-152.321l76.575,-74.34Zm301.753,304.643l150.877,152.321l-76.574,74.34l-150.877,-152.321l76.574,-74.34Zm301.754,304.642l150.877,152.322l-76.574,74.34l-150.877,-152.322l76.574,-74.34Zm150.877,152.322l150.877,152.321l-76.574,74.34l-150.877,-152.321l76.574,-74.34Zm150.877,152.321l150.877,152.321l-76.574,74.34l-150.877,-152.321l76.574,-74.34Zm150.877,152.321l150.877,152.322l-76.574,74.34l-150.877,-152.322l76.574,-74.34Zm150.877,152.322l150.877,152.321l-76.574,74.34l-150.877,-152.321l76.574,-74.34Zm150.877,152.321l150.877,152.321l-76.574,74.341l-150.877,-152.322l76.574,-74.34Zm150.877,152.321l150.877,152.322l-76.575,74.34l-150.876,-152.321l76.574,-74.341Zm-1585.34,-1448.87l150.877,152.321l-76.574,74.34l-150.877,-152.321l76.574,-74.34Zm150.877,152.321l150.877,152.322l-76.574,74.34l-150.877,-152.322l76.574,-74.34Zm150.877,152.322l150.877,152.321l-76.574,74.34l-150.877,-152.321l76.574,-74.34Zm-1887.1,-1753.52l150.877,152.321l-76.574,74.34l-150.877,-152.321l76.574,-74.34Zm150.877,152.321l150.877,152.321l-76.574,74.34l-150.877,-152.321l76.574,-74.34Zm150.877,152.321l150.877,152.322l-76.574,74.34l-150.877,-152.322l76.574,-74.34Zm150.877,152.322l150.877,152.321l-76.574,74.34l-150.877,-152.321l76.574,-74.34Zm150.877,152.321l150.877,152.321l-76.574,74.341l-150.877,-152.322l76.574,-74.34Zm301.754,304.643l150.877,152.321l-76.575,74.34l-150.876,-152.321l76.574,-74.34Zm150.877,152.321l150.876,152.321l-76.574,74.341l-150.877,-152.322l76.575,-74.34Zm150.876,152.321l150.877,152.322l-76.574,74.34l-150.877,-152.321l76.574,-74.341Zm150.877,152.322l150.877,152.321l-76.574,74.34l-150.877,-152.321l76.574,-74.34Zm452.631,456.964l150.877,152.321l-76.574,74.34l-150.877,-152.321l76.574,-74.34Zm150.877,152.321l150.877,152.322l-76.574,74.34l-150.877,-152.322l76.574,-74.34Zm301.754,304.643l150.877,152.321l-76.574,74.34l-150.877,-152.321l76.574,-74.34Zm301.754,304.643l150.877,152.321l-76.575,74.34l-150.876,-152.321l76.574,-74.34Zm301.754,304.642l150.876,152.322l-76.574,74.34l-150.877,-152.322l76.575,-74.34Zm-1887.1,-1753.52l150.877,152.322l-76.574,74.34l-150.877,-152.322l76.574,-74.34Zm150.877,152.322l150.877,152.321l-76.574,74.34l-150.877,-152.321l76.574,-74.34Zm150.877,152.321l150.877,152.321l-76.574,74.34l-150.877,-152.321l76.574,-74.34Zm150.877,152.321l150.877,152.322l-76.574,74.34l-150.877,-152.322l76.574,-74.34Zm754.385,761.607l150.877,152.321l-76.574,74.341l-150.877,-152.322l76.574,-74.34Zm150.877,152.321l150.877,152.322l-76.575,74.34l-150.876,-152.321l76.574,-74.341Zm301.753,304.643l150.877,152.321l-76.574,74.341l-150.877,-152.322l76.574,-74.34Zm150.877,152.321l150.877,152.322l-76.574,74.34l-150.877,-152.321l76.574,-74.341Zm150.877,152.322l150.877,152.321l-76.574,74.34l-150.877,-152.321l76.574,-74.34Zm-3094.11,-2972.09l150.877,152.321l-76.574,74.34l-150.877,-152.321l76.574,-74.34Zm301.754,304.643l150.877,152.321l-76.574,74.34l-150.877,-152.321l76.574,-74.34Zm301.754,304.642l150.876,152.322l-76.574,74.34l-150.877,-152.322l76.575,-74.34Zm150.876,152.322l150.877,152.321l-76.574,74.34l-150.877,-152.321l76.574,-74.34Zm150.877,152.321l150.877,152.321l-76.574,74.341l-150.877,-152.322l76.574,-74.34Zm150.877,152.321l150.877,152.322l-76.574,74.34l-150.877,-152.321l76.574,-74.341Zm150.877,152.322l150.877,152.321l-76.574,74.34l-150.877,-152.321l76.574,-74.34Zm150.877,152.321l150.877,152.321l-76.574,74.341l-150.877,-152.322l76.574,-74.34Zm301.754,304.643l150.877,152.321l-76.574,74.34l-150.877,-152.321l76.574,-74.34Zm150.877,152.321l150.877,152.321l-76.574,74.341l-150.877,-152.322l76.574,-74.34Zm452.631,456.964l150.877,152.322l-76.575,74.34l-150.876,-152.322l76.574,-74.34Zm603.507,609.286l150.877,152.321l-76.574,74.34l-150.877,-152.321l76.574,-74.34Zm-2792.36,-2667.45l150.877,152.322l-76.574,74.34l-150.877,-152.321l76.574,-74.341Zm603.507,609.286l150.877,152.321l-76.574,74.34l-150.877,-152.321l76.574,-74.34Zm603.508,609.285l150.877,152.322l-76.574,74.34l-150.877,-152.322l76.574,-74.34Zm150.877,152.322l150.877,152.321l-76.574,74.34l-150.877,-152.321l76.574,-74.34Zm301.754,304.642l150.877,152.322l-76.574,74.34l-150.877,-152.322l76.574,-74.34Zm150.877,152.322l150.877,152.321l-76.574,74.34l-150.877,-152.321l76.574,-74.34Zm452.63,456.964l150.877,152.321l-76.574,74.34l-150.877,-152.321l76.574,-74.34Zm301.754,304.642l150.877,152.322l-76.574,74.34l-150.877,-152.321l76.574,-74.341Zm150.877,152.322l150.877,152.321l-76.574,74.34l-150.877,-152.321l76.574,-74.34Zm-2641.48,-2515.12l150.876,152.321l-76.574,74.34l-150.877,-152.321l76.575,-74.34Zm150.876,152.321l150.877,152.322l-76.574,74.34l-150.877,-152.322l76.574,-74.34Zm452.631,456.964l150.877,152.322l-76.574,74.34l-150.877,-152.322l76.574,-74.34Zm150.877,152.322l150.877,152.321l-76.574,74.34l-150.877,-152.321l76.574,-74.34Zm452.631,456.964l150.877,152.321l-76.574,74.34l-150.877,-152.321l76.574,-74.34Zm301.754,304.642l150.877,152.322l-76.575,74.34l-150.876,-152.321l76.574,-74.341Zm301.754,304.643l150.876,152.321l-76.574,74.341l-150.877,-152.322l76.575,-74.34Zm301.753,304.643l150.877,152.321l-76.574,74.34l-150.877,-152.321l76.574,-74.34Zm-1283.59,-1144.23l150.877,152.322l-76.574,74.34l-150.877,-152.322l76.574,-74.34Zm452.631,456.964l150.877,152.322l-76.575,74.34l-150.876,-152.322l76.574,-74.34Zm452.63,456.964l150.877,152.322l-76.574,74.34l-150.877,-152.322l76.574,-74.34Zm150.877,152.322l150.877,152.321l-76.574,74.34l-150.877,-152.321l76.574,-74.34Zm150.877,152.321l150.877,152.321l-76.574,74.34l-150.877,-152.321l76.574,-74.34Zm150.877,152.321l150.877,152.322l-76.574,74.34l-150.877,-152.322l76.574,-74.34Zm301.754,304.643l150.877,152.321l-76.574,74.341l-150.877,-152.322l76.574,-74.34Zm150.877,152.321l150.877,152.322l-76.574,74.34l-150.877,-152.321l76.574,-74.341Zm-3094.11,-2972.09l150.877,152.322l-76.574,74.34l-150.877,-152.321l76.574,-74.341Zm150.877,152.322l150.877,152.321l-76.574,74.34l-150.877,-152.321l76.574,-74.34Zm150.877,152.321l150.877,152.322l-76.574,74.34l-150.877,-152.322l76.574,-74.34Zm150.877,152.322l150.877,152.321l-76.574,74.34l-150.877,-152.321l76.574,-74.34Zm150.877,152.321l150.877,152.321l-76.574,74.34l-150.877,-152.321l76.574,-74.34Zm150.877,152.321l150.877,152.322l-76.574,74.34l-150.877,-152.322l76.574,-74.34Zm150.877,152.322l150.877,152.321l-76.574,74.34l-150.877,-152.321l76.574,-74.34Zm301.754,304.642l150.877,152.322l-76.574,74.34l-150.877,-152.322l76.574,-74.34Zm301.754,304.643l150.877,152.321l-76.575,74.341l-150.876,-152.322l76.574,-74.34Zm150.877,152.321l150.876,152.322l-76.574,74.34l-150.877,-152.321l76.575,-74.341Zm150.876,152.322l150.877,152.321l-76.574,74.34l-150.877,-152.321l76.574,-74.34Zm754.385,761.606l150.877,152.322l-76.574,74.34l-150.877,-152.321l76.574,-74.341Zm150.877,152.322l150.877,152.321l-76.574,74.34l-150.877,-152.321l76.574,-74.34Zm150.877,152.321l150.877,152.322l-76.574,74.34l-150.877,-152.322l76.574,-74.34Zm-2943.24,-2819.76l150.877,152.321l-76.574,74.34l-150.877,-152.321l76.574,-74.34Zm905.262,913.928l150.877,152.321l-76.574,74.34l-150.877,-152.321l76.574,-74.34Zm603.508,609.285l150.876,152.322l-76.574,74.34l-150.877,-152.322l76.575,-74.34Zm150.876,152.322l150.877,152.321l-76.574,74.34l-150.877,-152.321l76.574,-74.34Zm150.877,152.321l150.877,152.321l-76.574,74.34l-150.877,-152.321l76.574,-74.34Zm150.877,152.321l150.877,152.322l-76.574,74.34l-150.877,-152.322l76.574,-74.34Zm301.754,304.643l150.877,152.321l-76.574,74.34l-150.877,-152.321l76.574,-74.34Zm301.754,304.643l150.877,152.321l-76.574,74.34l-150.877,-152.321l76.574,-74.34Zm150.877,152.321l150.877,152.321l-76.574,74.34l-150.877,-152.321l76.574,-74.34Zm-2792.36,-2667.44l150.877,152.321l-76.574,74.34l-150.877,-152.321l76.574,-74.34Zm301.754,304.642l150.877,152.322l-76.574,74.34l-150.877,-152.321l76.574,-74.341Zm150.877,152.322l150.877,152.321l-76.574,74.34l-150.877,-152.321l76.574,-74.34Zm150.877,152.321l150.877,152.322l-76.574,74.34l-150.877,-152.322l76.574,-74.34Zm301.754,304.643l150.877,152.321l-76.574,74.34l-150.877,-152.321l76.574,-74.34Zm301.754,304.643l150.877,152.321l-76.575,74.34l-150.877,-152.321l76.575,-74.34Zm150.877,152.321l150.876,152.321l-76.574,74.34l-150.877,-152.321l76.575,-74.34Zm301.753,304.643l150.877,152.321l-76.574,74.34l-150.877,-152.321l76.574,-74.34Zm150.877,152.321l150.877,152.321l-76.574,74.34l-150.877,-152.321l76.574,-74.34Zm301.754,304.643l150.877,152.321l-76.574,74.34l-150.877,-152.321l76.574,-74.34Zm452.631,456.964l150.877,152.321l-76.574,74.34l-150.877,-152.321l76.574,-74.34Zm-2641.48,-2515.12l150.877,152.321l-76.574,74.34l-150.877,-152.321l76.574,-74.34Zm301.754,304.643l150.877,152.321l-76.574,74.34l-150.877,-152.321l76.574,-74.34Zm150.877,152.321l150.877,152.321l-76.574,74.34l-150.877,-152.321l76.574,-74.34Zm150.877,152.321l150.877,152.322l-76.574,74.34l-150.877,-152.322l76.574,-74.34Zm301.754,304.643l150.877,152.321l-76.575,74.341l-150.876,-152.322l76.574,-74.34Zm301.753,304.643l150.877,152.321l-76.574,74.34l-150.877,-152.321l76.574,-74.34Zm150.877,152.321l150.877,152.321l-76.574,74.341l-150.877,-152.322l76.574,-74.34Zm603.508,609.285l150.877,152.322l-76.574,74.34l-150.877,-152.321l76.574,-74.341Zm150.877,152.322l150.877,152.321l-76.574,74.34l-150.877,-152.321l76.574,-74.34Zm301.754,304.643l150.877,152.321l-76.574,74.34l-150.877,-152.321l76.574,-74.34Zm452.631,456.964l150.876,152.321l-76.574,74.34l-150.877,-152.321l76.575,-74.34Zm-2943.24,-2819.77l150.877,152.321l-76.574,74.341l-150.877,-152.322l76.574,-74.34Zm301.754,304.643l150.877,152.321l-76.574,74.34l-150.877,-152.321l76.574,-74.34Zm150.877,152.321l150.877,152.321l-76.574,74.341l-150.877,-152.322l76.574,-74.34Zm150.877,152.321l150.877,152.322l-76.574,74.34l-150.877,-152.321l76.574,-74.341Zm301.754,304.643l150.876,152.322l-76.574,74.34l-150.877,-152.322l76.575,-74.34Zm301.753,304.643l150.877,152.321l-76.574,74.34l-150.877,-152.321l76.574,-74.34Zm150.877,152.321l150.877,152.322l-76.574,74.34l-150.877,-152.322l76.574,-74.34Zm301.754,304.643l150.877,152.321l-76.574,74.34l-150.877,-152.321l76.574,-74.34Zm150.877,152.321l150.877,152.322l-76.574,74.34l-150.877,-152.322l76.574,-74.34Zm150.877,152.322l150.877,152.321l-76.574,74.34l-150.877,-152.321l76.574,-74.34Zm150.877,152.321l150.877,152.321l-76.574,74.34l-150.877,-152.321l76.574,-74.34Zm452.631,456.964l150.877,152.321l-76.575,74.341l-150.877,-152.322l76.575,-74.34Zm150.877,152.321l150.876,152.322l-76.574,74.34l-150.877,-152.321l76.575,-74.341Zm-2792.36,-2667.44l150.877,152.322l-76.574,74.34l-150.877,-152.322l76.574,-74.34Zm905.261,913.928l150.877,152.322l-76.574,74.34l-150.877,-152.322l76.574,-74.34Zm301.754,304.643l150.877,152.321l-76.574,74.341l-150.877,-152.322l76.574,-74.34Zm301.754,304.643l150.877,152.321l-76.574,74.34l-150.877,-152.321l76.574,-74.34Zm150.877,152.321l150.877,152.321l-76.574,74.341l-150.877,-152.322l76.574,-74.34Zm150.877,152.321l150.877,152.322l-76.574,74.34l-150.877,-152.321l76.574,-74.341Zm150.877,152.322l150.877,152.321l-76.574,74.34l-150.877,-152.321l76.574,-74.34Zm301.754,304.642l150.877,152.322l-76.575,74.34l-150.876,-152.321l76.574,-74.341Zm301.753,304.643l150.877,152.322l-76.574,74.34l-150.877,-152.322l76.574,-74.34Zm150.877,152.322l150.877,152.321l-76.574,74.34l-150.877,-152.321l76.574,-74.34Zm-2792.36,-2667.45l150.877,152.322l-76.574,74.34l-150.877,-152.322l76.574,-74.34Zm150.877,152.322l150.877,152.321l-76.574,74.34l-150.877,-152.321l76.574,-74.34Zm150.877,152.321l150.877,152.321l-76.575,74.341l-150.876,-152.322l76.574,-74.34Zm150.877,152.321l150.876,152.322l-76.574,74.34l-150.877,-152.321l76.575,-74.341Zm150.876,152.322l150.877,152.321l-76.574,74.34l-150.877,-152.321l76.574,-74.34Zm150.877,152.321l150.877,152.321l-76.574,74.341l-150.877,-152.322l76.574,-74.34Zm150.877,152.321l150.877,152.322l-76.574,74.34l-150.877,-152.321l76.574,-74.341Zm301.754,304.643l150.877,152.322l-76.574,74.34l-150.877,-152.322l76.574,-74.34Zm150.877,152.322l150.877,152.321l-76.574,74.34l-150.877,-152.321l76.574,-74.34Zm150.877,152.321l150.877,152.321l-76.574,74.34l-150.877,-152.321l76.574,-74.34Zm150.877,152.321l150.877,152.322l-76.574,74.34l-150.877,-152.322l76.574,-74.34Zm452.631,456.964l150.877,152.322l-76.575,74.34l-150.876,-152.322l76.574,-74.34Zm150.877,152.322l150.876,152.321l-76.574,74.34l-150.877,-152.321l76.575,-74.34Zm301.753,304.642l150.877,152.322l-76.574,74.34l-150.877,-152.322l76.574,-74.34Zm301.754,304.643l150.877,152.321l-76.574,74.341l-150.877,-152.322l76.574,-74.34Z" style="fill-rule:nonzero;"/></g><g id="elements2" serif:id="elements"><path d="M1401.49,-1327.3l194.8,196.767l-149.318,146.717l-194.801,-196.767l149.319,-146.717Zm194.8,196.767l194.801,196.767l-149.318,146.717l-194.801,-196.767l149.318,-146.717Zm194.801,196.767l194.801,196.767l-149.318,146.718l-194.801,-196.768l149.318,-146.717Zm194.801,196.767l194.801,196.768l-149.318,146.717l-194.801,-196.767l149.318,-146.718Zm194.801,196.768l194.801,196.767l-149.318,146.717l-194.801,-196.767l149.318,-146.717Zm194.801,196.767l194.801,196.767l-149.318,146.717l-194.801,-196.767l149.318,-146.717Zm194.801,196.767l194.801,196.767l-149.319,146.718l-194.8,-196.768l149.318,-146.717Zm1558.41,1574.14l194.801,196.767l-149.319,146.718l-194.8,-196.767l149.318,-146.718Zm194.801,196.767l194.801,196.768l-149.319,146.717l-194.801,-196.767l149.319,-146.718Zm194.801,196.768l194.8,196.767l-149.318,146.717l-194.801,-196.767l149.319,-146.717Zm194.8,196.767l194.801,196.767l-149.318,146.718l-194.801,-196.768l149.318,-146.717Zm194.801,196.767l194.801,196.768l-149.318,146.717l-194.801,-196.767l149.318,-146.718Zm194.801,196.768l194.801,196.767l-149.318,146.717l-194.801,-196.767l149.318,-146.717Zm194.801,196.767l194.801,196.767l-149.318,146.717l-194.801,-196.767l149.318,-146.717Zm-4045.34,-3788.63l194.801,196.767l-149.318,146.718l-194.801,-196.768l149.318,-146.717Zm1168.81,1180.6l194.8,196.768l-149.318,146.717l-194.801,-196.767l149.319,-146.718Zm389.601,393.535l194.801,196.767l-149.318,146.718l-194.801,-196.768l149.318,-146.717Zm584.403,590.302l194.801,196.767l-149.318,146.717l-194.801,-196.767l149.318,-146.717Zm194.801,196.767l194.801,196.767l-149.319,146.718l-194.8,-196.768l149.318,-146.717Zm389.602,393.535l194.8,196.767l-149.318,146.717l-194.801,-196.767l149.319,-146.717Zm1168.81,1180.6l194.801,196.767l-149.319,146.718l-194.8,-196.768l149.318,-146.717Zm-4045.34,-3788.63l194.801,196.768l-149.318,146.717l-194.801,-196.767l149.318,-146.718Zm389.602,393.535l194.801,196.767l-149.319,146.717l-194.801,-196.767l149.319,-146.717Zm194.801,196.767l194.8,196.767l-149.318,146.718l-194.801,-196.768l149.319,-146.717Zm194.8,196.767l194.801,196.768l-149.318,146.717l-194.801,-196.767l149.318,-146.718Zm389.602,393.535l194.801,196.767l-149.318,146.717l-194.801,-196.767l149.318,-146.717Zm584.403,590.302l194.801,196.767l-149.319,146.717l-194.8,-196.767l149.318,-146.717Zm389.602,393.534l194.801,196.767l-149.319,146.718l-194.801,-196.768l149.319,-146.717Zm584.402,590.302l194.801,196.767l-149.318,146.718l-194.801,-196.768l149.318,-146.717Zm389.602,393.534l194.801,196.768l-149.318,146.717l-194.801,-196.767l149.318,-146.718Zm194.801,196.768l194.801,196.767l-149.318,146.717l-194.801,-196.767l149.318,-146.717Zm194.801,196.767l194.801,196.767l-149.319,146.718l-194.8,-196.768l149.318,-146.717Zm389.602,393.534l194.8,196.768l-149.318,146.717l-194.801,-196.767l149.319,-146.718Zm-4045.34,-3788.63l194.801,196.767l-149.319,146.717l-194.801,-196.767l149.319,-146.717Zm389.601,393.534l194.801,196.767l-149.318,146.718l-194.801,-196.768l149.318,-146.717Zm194.801,196.767l194.801,196.768l-149.318,146.717l-194.801,-196.767l149.318,-146.718Zm194.801,196.768l194.801,196.767l-149.318,146.717l-194.801,-196.767l149.318,-146.717Zm389.602,393.534l194.801,196.767l-149.318,146.718l-194.801,-196.767l149.318,-146.718Zm389.602,393.535l194.801,196.767l-149.319,146.717l-194.801,-196.767l149.319,-146.717Zm194.801,196.767l194.8,196.767l-149.318,146.718l-194.801,-196.768l149.319,-146.717Zm389.601,393.534l194.801,196.768l-149.318,146.717l-194.801,-196.767l149.318,-146.718Zm194.801,196.768l194.801,196.767l-149.318,146.717l-194.801,-196.767l149.318,-146.717Zm389.602,393.534l194.801,196.768l-149.318,146.717l-194.801,-196.767l149.318,-146.718Zm389.602,393.535l194.801,196.767l-149.319,146.717l-194.801,-196.767l149.319,-146.717Zm194.801,196.767l194.801,196.767l-149.319,146.718l-194.801,-196.768l149.319,-146.717Zm194.801,196.767l194.8,196.768l-149.318,146.717l-194.801,-196.767l149.319,-146.718Zm389.601,393.535l194.801,196.767l-149.318,146.717l-194.801,-196.767l149.318,-146.717Zm-4045.34,-3788.63l194.801,196.767l-149.318,146.718l-194.801,-196.768l149.318,-146.717Zm389.602,393.534l194.801,196.768l-149.318,146.717l-194.801,-196.767l149.318,-146.718Zm194.801,196.768l194.801,196.767l-149.318,146.717l-194.801,-196.767l149.318,-146.717Zm194.801,196.767l194.801,196.767l-149.318,146.718l-194.801,-196.768l149.318,-146.717Zm389.602,393.535l194.801,196.767l-149.319,146.717l-194.801,-196.767l149.319,-146.717Zm779.203,787.069l194.801,196.767l-149.318,146.717l-194.801,-196.767l149.318,-146.717Zm779.204,787.069l194.801,196.767l-149.319,146.717l-194.801,-196.767l149.319,-146.717Zm389.601,393.534l194.801,196.767l-149.318,146.718l-194.801,-196.768l149.318,-146.717Zm194.801,196.767l194.801,196.768l-149.318,146.717l-194.801,-196.767l149.318,-146.718Zm194.801,196.768l194.801,196.767l-149.318,146.717l-194.801,-196.767l149.318,-146.717Zm389.602,393.534l194.801,196.767l-149.318,146.718l-194.801,-196.768l149.318,-146.717Zm-4045.34,-3788.63l194.801,196.768l-149.318,146.717l-194.801,-196.767l149.318,-146.718Zm1168.81,1180.6l194.801,196.767l-149.318,146.717l-194.801,-196.767l149.318,-146.717Zm389.602,393.534l194.801,196.768l-149.318,146.717l-194.801,-196.767l149.318,-146.718Zm194.801,196.768l194.801,196.767l-149.318,146.717l-194.801,-196.767l149.318,-146.717Zm194.801,196.767l194.801,196.767l-149.318,146.717l-194.801,-196.767l149.318,-146.717Zm194.801,196.767l194.801,196.767l-149.319,146.718l-194.8,-196.768l149.318,-146.717Zm194.801,196.767l194.801,196.768l-149.319,146.717l-194.801,-196.767l149.319,-146.718Zm389.601,393.535l194.801,196.767l-149.318,146.718l-194.801,-196.768l149.318,-146.717Zm1168.81,1180.6l194.801,196.768l-149.319,146.717l-194.801,-196.767l149.319,-146.718Zm-4045.34,-3788.63l194.801,196.767l-149.319,146.717l-194.8,-196.767l149.318,-146.717Zm194.801,196.767l194.801,196.767l-149.319,146.717l-194.801,-196.767l149.319,-146.717Zm194.801,196.767l194.8,196.767l-149.318,146.718l-194.801,-196.768l149.319,-146.717Zm194.8,196.767l194.801,196.768l-149.318,146.717l-194.801,-196.767l149.318,-146.718Zm194.801,196.768l194.801,196.767l-149.318,146.717l-194.801,-196.767l149.318,-146.717Zm194.801,196.767l194.801,196.767l-149.318,146.718l-194.801,-196.768l149.318,-146.717Zm194.801,196.767l194.801,196.767l-149.318,146.718l-194.801,-196.767l149.318,-146.718Zm389.602,393.535l194.801,196.767l-149.319,146.717l-194.8,-196.767l149.318,-146.717Zm389.602,393.534l194.801,196.767l-149.319,146.718l-194.801,-196.767l149.319,-146.718Zm389.601,393.535l194.801,196.767l-149.318,146.717l-194.801,-196.767l149.318,-146.717Zm389.602,393.534l194.801,196.768l-149.318,146.717l-194.801,-196.767l149.318,-146.718Zm194.801,196.768l194.801,196.767l-149.318,146.717l-194.801,-196.767l149.318,-146.717Zm194.801,196.767l194.801,196.767l-149.318,146.717l-194.801,-196.767l149.318,-146.717Zm194.801,196.767l194.801,196.767l-149.319,146.718l-194.8,-196.768l149.318,-146.717Zm194.801,196.767l194.801,196.768l-149.319,146.717l-194.801,-196.767l149.319,-146.718Zm194.801,196.768l194.8,196.767l-149.318,146.717l-194.801,-196.767l149.319,-146.717Zm194.8,196.767l194.801,196.767l-149.318,146.717l-194.801,-196.767l149.318,-146.717Zm-2097.33,-1820.95l194.801,196.767l-149.318,146.717l-194.801,-196.767l149.318,-146.717Zm194.801,196.767l194.801,196.767l-149.318,146.717l-194.801,-196.767l149.318,-146.717Zm194.801,196.767l194.801,196.767l-149.318,146.718l-194.801,-196.768l149.318,-146.717Zm-2486.93,-2214.49l194.801,196.768l-149.318,146.717l-194.801,-196.767l149.318,-146.718Zm194.801,196.768l194.801,196.767l-149.318,146.717l-194.801,-196.767l149.318,-146.717Zm194.801,196.767l194.801,196.767l-149.318,146.717l-194.801,-196.767l149.318,-146.717Zm194.801,196.767l194.801,196.767l-149.318,146.718l-194.801,-196.768l149.318,-146.717Zm194.801,196.767l194.801,196.768l-149.319,146.717l-194.8,-196.767l149.318,-146.718Zm389.602,393.535l194.8,196.767l-149.318,146.717l-194.801,-196.767l149.319,-146.717Zm194.8,196.767l194.801,196.767l-149.318,146.718l-194.801,-196.768l149.318,-146.717Zm194.801,196.767l194.801,196.768l-149.318,146.717l-194.801,-196.767l149.318,-146.718Zm194.801,196.768l194.801,196.767l-149.318,146.717l-194.801,-196.767l149.318,-146.717Zm584.403,590.301l194.801,196.768l-149.319,146.717l-194.8,-196.767l149.318,-146.718Zm194.801,196.768l194.801,196.767l-149.319,146.717l-194.801,-196.767l149.319,-146.717Zm389.601,393.534l194.801,196.767l-149.318,146.718l-194.801,-196.767l149.318,-146.718Zm389.602,393.535l194.801,196.767l-149.318,146.717l-194.801,-196.767l149.318,-146.717Zm389.602,393.534l194.801,196.768l-149.318,146.717l-194.801,-196.767l149.318,-146.718Zm-2486.93,-2214.49l194.801,196.768l-149.318,146.717l-194.801,-196.767l149.318,-146.718Zm194.801,196.768l194.801,196.767l-149.318,146.717l-194.801,-196.767l149.318,-146.717Zm194.801,196.767l194.801,196.767l-149.318,146.718l-194.801,-196.768l149.318,-146.717Zm194.801,196.767l194.801,196.768l-149.319,146.717l-194.8,-196.767l149.318,-146.718Zm974.004,983.837l194.801,196.767l-149.318,146.717l-194.801,-196.767l149.318,-146.717Zm194.801,196.767l194.801,196.767l-149.318,146.717l-194.801,-196.767l149.318,-146.717Zm389.602,393.534l194.801,196.768l-149.319,146.717l-194.8,-196.767l149.318,-146.718Zm194.801,196.768l194.801,196.767l-149.319,146.717l-194.801,-196.767l149.319,-146.717Zm194.801,196.767l194.801,196.767l-149.319,146.717l-194.801,-196.767l149.319,-146.717Zm-4045.34,-3788.63l194.801,196.767l-149.319,146.718l-194.801,-196.768l149.319,-146.717Zm389.601,393.535l194.801,196.767l-149.318,146.717l-194.801,-196.767l149.318,-146.717Zm389.602,393.534l194.801,196.767l-149.318,146.718l-194.801,-196.768l149.318,-146.717Zm194.801,196.767l194.801,196.768l-149.318,146.717l-194.801,-196.767l149.318,-146.718Zm194.801,196.768l194.801,196.767l-149.318,146.717l-194.801,-196.767l149.318,-146.717Zm194.801,196.767l194.801,196.767l-149.319,146.717l-194.8,-196.767l149.318,-146.717Zm194.801,196.767l194.801,196.767l-149.319,146.718l-194.801,-196.768l149.319,-146.717Zm194.801,196.767l194.801,196.768l-149.319,146.717l-194.801,-196.767l149.319,-146.718Zm389.601,393.535l194.801,196.767l-149.318,146.717l-194.801,-196.767l149.318,-146.717Zm194.801,196.767l194.801,196.767l-149.318,146.718l-194.801,-196.768l149.318,-146.717Zm584.403,590.302l194.801,196.767l-149.318,146.717l-194.801,-196.767l149.318,-146.717Zm779.203,787.069l194.801,196.767l-149.318,146.718l-194.801,-196.768l149.318,-146.717Zm-3655.73,-3395.09l194.801,196.767l-149.318,146.717l-194.801,-196.767l149.318,-146.717Zm779.204,787.069l194.801,196.767l-149.319,146.717l-194.8,-196.767l149.318,-146.717Zm779.203,787.069l194.801,196.767l-149.318,146.717l-194.801,-196.767l149.318,-146.717Zm194.801,196.767l194.801,196.767l-149.318,146.718l-194.801,-196.768l149.318,-146.717Zm389.602,393.534l194.801,196.768l-149.318,146.717l-194.801,-196.767l149.318,-146.718Zm194.801,196.768l194.801,196.767l-149.319,146.717l-194.8,-196.767l149.318,-146.717Zm584.403,590.301l194.8,196.768l-149.318,146.717l-194.801,-196.767l149.319,-146.718Zm389.601,393.535l194.801,196.767l-149.318,146.718l-194.801,-196.768l149.318,-146.717Zm194.801,196.767l194.801,196.768l-149.318,146.717l-194.801,-196.767l149.318,-146.718Zm-3460.93,-3198.33l194.801,196.767l-149.318,146.718l-194.801,-196.767l149.318,-146.718Zm194.801,196.767l194.801,196.768l-149.319,146.717l-194.8,-196.767l149.318,-146.718Zm584.402,590.302l194.801,196.767l-149.318,146.718l-194.801,-196.767l149.318,-146.718Zm194.801,196.767l194.801,196.768l-149.318,146.717l-194.801,-196.767l149.318,-146.718Zm584.403,590.302l194.801,196.768l-149.318,146.717l-194.801,-196.767l149.318,-146.718Zm389.602,393.535l194.801,196.767l-149.319,146.717l-194.801,-196.767l149.319,-146.717Zm389.601,393.534l194.801,196.768l-149.318,146.717l-194.801,-196.767l149.318,-146.718Zm389.602,393.535l194.801,196.767l-149.318,146.717l-194.801,-196.767l149.318,-146.717Zm-1707.73,-1427.42l194.801,196.767l-149.318,146.718l-194.801,-196.768l149.318,-146.717Zm584.403,590.302l194.8,196.767l-149.318,146.717l-194.801,-196.767l149.319,-146.717Zm584.402,590.302l194.801,196.767l-149.318,146.717l-194.801,-196.767l149.318,-146.717Zm194.801,196.767l194.801,196.767l-149.318,146.718l-194.801,-196.768l149.318,-146.717Zm194.801,196.767l194.801,196.767l-149.318,146.718l-194.801,-196.767l149.318,-146.718Zm194.801,196.767l194.801,196.768l-149.319,146.717l-194.8,-196.767l149.318,-146.718Zm389.602,393.535l194.8,196.767l-149.318,146.718l-194.801,-196.768l149.319,-146.717Zm194.8,196.767l194.801,196.767l-149.318,146.718l-194.801,-196.767l149.318,-146.718Zm-4045.34,-3788.63l194.8,196.768l-149.318,146.717l-194.801,-196.767l149.319,-146.718Zm194.8,196.768l194.801,196.767l-149.318,146.717l-194.801,-196.767l149.318,-146.717Zm194.801,196.767l194.801,196.767l-149.318,146.717l-194.801,-196.767l149.318,-146.717Zm194.801,196.767l194.801,196.767l-149.318,146.718l-194.801,-196.768l149.318,-146.717Zm194.801,196.767l194.801,196.768l-149.318,146.717l-194.801,-196.767l149.318,-146.718Zm194.801,196.768l194.801,196.767l-149.318,146.717l-194.801,-196.767l149.318,-146.717Zm194.801,196.767l194.801,196.767l-149.319,146.718l-194.8,-196.768l149.318,-146.717Zm389.602,393.534l194.801,196.768l-149.319,146.717l-194.801,-196.767l149.319,-146.718Zm389.601,393.535l194.801,196.767l-149.318,146.718l-194.801,-196.768l149.318,-146.717Zm194.801,196.767l194.801,196.767l-149.318,146.718l-194.801,-196.767l149.318,-146.718Zm194.801,196.767l194.801,196.768l-149.318,146.717l-194.801,-196.767l149.318,-146.718Zm974.005,983.837l194.8,196.767l-149.318,146.717l-194.801,-196.767l149.319,-146.717Zm194.8,196.767l194.801,196.767l-149.318,146.718l-194.801,-196.768l149.318,-146.717Zm194.801,196.767l194.801,196.768l-149.318,146.717l-194.801,-196.767l149.318,-146.718Zm-3850.53,-3591.86l194.801,196.767l-149.318,146.717l-194.801,-196.767l149.318,-146.717Zm1168.81,1180.6l194.8,196.768l-149.318,146.717l-194.801,-196.767l149.319,-146.718Zm779.203,787.069l194.801,196.768l-149.318,146.717l-194.801,-196.767l149.318,-146.718Zm194.801,196.768l194.801,196.767l-149.318,146.717l-194.801,-196.767l149.318,-146.717Zm194.801,196.767l194.801,196.767l-149.319,146.717l-194.8,-196.767l149.318,-146.717Zm194.801,196.767l194.801,196.767l-149.319,146.718l-194.801,-196.768l149.319,-146.717Zm389.602,393.535l194.8,196.767l-149.318,146.717l-194.801,-196.767l149.319,-146.717Zm389.601,393.534l194.801,196.767l-149.318,146.718l-194.801,-196.768l149.318,-146.717Zm194.801,196.767l194.801,196.768l-149.318,146.717l-194.801,-196.767l149.318,-146.718Zm-3655.73,-3395.09l194.801,196.767l-149.318,146.718l-194.801,-196.768l149.318,-146.717Zm389.602,393.535l194.801,196.767l-149.319,146.717l-194.801,-196.767l149.319,-146.717Zm194.801,196.767l194.801,196.767l-149.319,146.717l-194.801,-196.767l149.319,-146.717Zm194.801,196.767l194.8,196.767l-149.318,146.718l-194.801,-196.768l149.319,-146.717Zm389.601,393.535l194.801,196.767l-149.318,146.717l-194.801,-196.767l149.318,-146.717Zm389.602,393.534l194.801,196.767l-149.318,146.718l-194.801,-196.768l149.318,-146.717Zm194.801,196.767l194.801,196.768l-149.318,146.717l-194.801,-196.767l149.318,-146.718Zm389.602,393.535l194.801,196.767l-149.319,146.717l-194.801,-196.767l149.319,-146.717Zm194.801,196.767l194.8,196.767l-149.318,146.718l-194.801,-196.768l149.319,-146.717Zm389.601,393.535l194.801,196.767l-149.318,146.717l-194.801,-196.767l149.318,-146.717Zm584.403,590.301l194.801,196.768l-149.318,146.717l-194.801,-196.767l149.318,-146.718Zm-3460.93,-3198.33l194.801,196.768l-149.319,146.717l-194.801,-196.767l149.319,-146.718Zm389.601,393.535l194.801,196.767l-149.318,146.717l-194.801,-196.767l149.318,-146.717Zm194.801,196.767l194.801,196.767l-149.318,146.718l-194.801,-196.768l149.318,-146.717Zm194.801,196.767l194.801,196.768l-149.318,146.717l-194.801,-196.767l149.318,-146.718Zm389.602,393.535l194.801,196.767l-149.318,146.718l-194.801,-196.768l149.318,-146.717Zm389.602,393.534l194.801,196.768l-149.319,146.717l-194.8,-196.767l149.318,-146.718Zm194.801,196.768l194.801,196.767l-149.319,146.717l-194.801,-196.767l149.319,-146.717Zm779.203,787.069l194.801,196.767l-149.318,146.717l-194.801,-196.767l149.318,-146.717Zm194.801,196.767l194.801,196.767l-149.318,146.718l-194.801,-196.768l149.318,-146.717Zm389.602,393.535l194.801,196.767l-149.319,146.717l-194.8,-196.767l149.318,-146.717Zm584.402,590.301l194.801,196.768l-149.318,146.717l-194.801,-196.767l149.318,-146.718Zm-3850.53,-3591.86l194.801,196.767l-149.318,146.717l-194.801,-196.767l149.318,-146.717Zm389.602,393.534l194.801,196.767l-149.318,146.718l-194.801,-196.767l149.318,-146.718Zm194.801,196.767l194.801,196.768l-149.318,146.717l-194.801,-196.767l149.318,-146.718Zm194.801,196.768l194.801,196.767l-149.318,146.717l-194.801,-196.767l149.318,-146.717Zm389.602,393.534l194.801,196.768l-149.319,146.717l-194.801,-196.767l149.319,-146.718Zm389.602,393.535l194.8,196.767l-149.318,146.717l-194.801,-196.767l149.319,-146.717Zm194.8,196.767l194.801,196.767l-149.318,146.718l-194.801,-196.768l149.318,-146.717Zm389.602,393.535l194.801,196.767l-149.318,146.717l-194.801,-196.767l149.318,-146.717Zm194.801,196.767l194.801,196.767l-149.318,146.717l-194.801,-196.767l149.318,-146.717Zm194.801,196.767l194.801,196.767l-149.318,146.718l-194.801,-196.768l149.318,-146.717Zm194.801,196.767l194.801,196.768l-149.319,146.717l-194.8,-196.767l149.318,-146.718Zm584.402,590.302l194.801,196.767l-149.318,146.718l-194.801,-196.768l149.318,-146.717Zm194.801,196.767l194.801,196.768l-149.318,146.717l-194.801,-196.767l149.318,-146.718Zm-3655.73,-3395.09l194.801,196.767l-149.318,146.718l-194.801,-196.768l149.318,-146.717Zm1168.81,1180.6l194.801,196.767l-149.318,146.717l-194.801,-196.767l149.318,-146.717Zm389.602,393.534l194.801,196.767l-149.318,146.718l-194.801,-196.768l149.318,-146.717Zm389.602,393.535l194.801,196.767l-149.318,146.717l-194.801,-196.767l149.318,-146.717Zm194.801,196.767l194.801,196.767l-149.319,146.718l-194.8,-196.768l149.318,-146.717Zm194.801,196.767l194.801,196.767l-149.319,146.718l-194.801,-196.767l149.319,-146.718Zm194.801,196.767l194.801,196.768l-149.319,146.717l-194.801,-196.767l149.319,-146.718Zm389.601,393.535l194.801,196.767l-149.318,146.718l-194.801,-196.768l149.318,-146.717Zm389.602,393.534l194.801,196.768l-149.318,146.717l-194.801,-196.767l149.318,-146.718Zm194.801,196.768l194.801,196.767l-149.318,146.717l-194.801,-196.767l149.318,-146.717Zm-3655.73,-3395.09l194.801,196.768l-149.319,146.717l-194.8,-196.767l149.318,-146.718Zm194.801,196.768l194.801,196.767l-149.319,146.717l-194.801,-196.767l149.319,-146.717Zm194.801,196.767l194.801,196.767l-149.319,146.718l-194.801,-196.768l149.319,-146.717Zm194.801,196.767l194.8,196.767l-149.318,146.718l-194.801,-196.767l149.319,-146.718Zm194.8,196.767l194.801,196.768l-149.318,146.717l-194.801,-196.767l149.318,-146.718Zm194.801,196.768l194.801,196.767l-149.318,146.717l-194.801,-196.767l149.318,-146.717Zm194.801,196.767l194.801,196.767l-149.318,146.718l-194.801,-196.768l149.318,-146.717Zm389.602,393.534l194.801,196.768l-149.318,146.717l-194.801,-196.767l149.318,-146.718Zm194.801,196.768l194.801,196.767l-149.319,146.717l-194.8,-196.767l149.318,-146.717Zm194.801,196.767l194.801,196.767l-149.319,146.718l-194.801,-196.768l149.319,-146.717Zm194.801,196.767l194.8,196.768l-149.318,146.717l-194.801,-196.767l149.319,-146.718Zm584.402,590.302l194.801,196.767l-149.318,146.718l-194.801,-196.768l149.318,-146.717Zm194.801,196.767l194.801,196.768l-149.318,146.717l-194.801,-196.767l149.318,-146.718Zm389.602,393.535l194.801,196.767l-149.319,146.717l-194.8,-196.767l149.318,-146.717Zm389.602,393.534l194.801,196.768l-149.319,146.717l-194.801,-196.767l149.319,-146.718Z" style="fill:#fe00ff;fill-rule:nonzero;"/></g></svg>