<?xml version="1.0" encoding="UTF-8" standalone="no"?><!DOCTYPE svg PUBLIC "-//W3C//DTD SVG 1.1//EN" "http://www.w3.org/Graphics/SVG/1.1/DTD/svg11.dtd"><svg width="100%" height="100%" viewBox="0 0 9934 14046" version="1.1" xmlns="http://www.w3.org/2000/svg" xmlns:xlink="http://www.w3.org/1999/xlink" xml:space="preserve" xmlns:serif="http://www.serif.com/" style="fill-rule:evenodd;clip-rule:evenodd;stroke-linejoin:round;stroke-miterlimit:2;"><rect x="0" y="0" width="9933.08" height="14043.3" style="fill:#8400ff;"/><g id="elements"><path d="M4476.96,-4431.25l628.654,634.671l-319.058,309.75l-628.654,-634.671l319.058,-309.75Zm628.654,634.671l628.655,634.671l-319.059,309.75l-628.654,-634.671l319.059,-309.75Zm628.654,634.671l628.654,634.675l-319.059,309.75l-628.654,-634.675l319.059,-309.75Zm628.654,634.675l628.654,634.67l-319.058,309.75l-628.655,-634.67l319.059,-309.75Zm628.654,634.67l628.654,634.671l-319.062,309.75l-628.65,-634.671l319.058,-309.75Zm628.654,634.671l628.65,634.675l-319.058,309.75l-628.654,-634.675l319.062,-309.75Zm628.65,634.675l628.654,634.671l-319.058,309.75l-628.654,-634.671l319.058,-309.75Zm5029.25,5077.38l628.654,634.675l-319.058,309.75l-628.654,-634.671l319.058,-309.754Zm628.654,634.675l628.654,634.671l-319.058,309.75l-628.654,-634.671l319.058,-309.75Zm628.655,634.671l628.654,634.675l-319.063,309.75l-628.65,-634.675l319.058,-309.75Zm628.655,634.675l628.65,634.671l-319.059,309.75l-628.654,-634.671l319.063,-309.75Zm628.65,634.671l628.654,634.671l-319.059,309.75l-628.654,-634.671l319.059,-309.75Zm628.654,634.671l628.654,634.675l-319.058,309.75l-628.654,-634.675l319.058,-309.75Zm628.654,634.675l628.654,634.671l-319.058,309.75l-628.654,-634.671l319.058,-309.75Zm-12892.1,-12383.7l628.654,634.671l-319.058,309.75l-628.654,-634.671l319.058,-309.75Zm3771.92,3808.03l628.654,634.671l-319.058,309.75l-628.654,-634.671l319.058,-309.75Zm1257.31,1269.35l628.654,634.67l-319.058,309.75l-628.654,-634.67l319.058,-309.75Zm1885.96,1904.02l628.654,634.671l-319.058,309.75l-628.655,-634.671l319.059,-309.75Zm628.654,634.671l628.654,634.671l-319.058,309.75l-628.654,-634.671l319.058,-309.75Zm1257.31,1269.35l628.654,634.671l-319.062,309.75l-628.65,-634.671l319.058,-309.75Zm3771.92,3808.03l628.654,634.671l-319.058,309.75l-628.654,-634.671l319.058,-309.75Zm-12892.1,-12383.7l628.654,634.671l-319.058,309.75l-628.654,-634.671l319.058,-309.75Zm1257.31,1269.35l628.655,634.671l-319.063,309.75l-628.654,-634.671l319.062,-309.75Zm628.655,634.671l628.65,634.67l-319.059,309.751l-628.654,-634.671l319.063,-309.75Zm628.65,634.67l628.654,634.675l-319.059,309.75l-628.654,-634.675l319.059,-309.75Zm1257.31,1269.35l628.654,634.671l-319.058,309.75l-628.654,-634.671l319.058,-309.75Zm1885.96,1904.02l628.655,634.671l-319.059,309.754l-628.654,-634.675l319.058,-309.75Zm1257.31,1269.35l628.654,634.671l-319.058,309.75l-628.655,-634.671l319.059,-309.75Zm1885.96,1904.02l628.65,634.67l-319.058,309.75l-628.654,-634.671l319.062,-309.749Zm1257.3,1269.34l628.655,634.675l-319.059,309.75l-628.654,-634.671l319.058,-309.754Zm628.655,634.675l628.654,634.671l-319.059,309.75l-628.654,-634.671l319.059,-309.75Zm628.654,634.671l628.654,634.675l-319.058,309.75l-628.655,-634.675l319.059,-309.75Zm1257.31,1269.35l628.654,634.671l-319.058,309.75l-628.654,-634.671l319.058,-309.75Zm-12892.1,-12383.7l628.654,634.671l-319.062,309.75l-628.65,-634.671l319.058,-309.749Zm1257.3,1269.35l628.654,634.671l-319.058,309.75l-628.654,-634.671l319.058,-309.75Zm628.654,634.671l628.655,634.671l-319.059,309.754l-628.654,-634.675l319.058,-309.75Zm628.655,634.671l628.654,634.675l-319.059,309.75l-628.654,-634.671l319.059,-309.754Zm1257.31,1269.35l628.654,634.671l-319.058,309.754l-628.654,-634.675l319.058,-309.75Zm1257.31,1269.35l628.654,634.671l-319.058,309.75l-628.654,-634.671l319.058,-309.75Zm628.654,634.671l628.655,634.675l-319.059,309.75l-628.654,-634.675l319.058,-309.75Zm1257.31,1269.35l628.654,634.671l-319.058,309.75l-628.655,-634.671l319.059,-309.75Zm628.654,634.671l628.654,634.675l-319.062,309.75l-628.65,-634.675l319.058,-309.75Zm1257.3,1269.35l628.654,634.671l-319.058,309.75l-628.654,-634.671l319.058,-309.75Zm1257.31,1269.35l628.655,634.671l-319.059,309.75l-628.654,-634.671l319.058,-309.75Zm628.655,634.671l628.654,634.671l-319.059,309.749l-628.654,-634.67l319.058,-309.75Zm628.655,634.671l628.654,634.674l-319.059,309.75l-628.654,-634.675l319.059,-309.75Zm1257.31,1269.35l628.654,634.671l-319.058,309.754l-628.654,-634.675l319.058,-309.75Zm-12892.1,-12383.7l628.65,634.671l-319.058,309.754l-628.654,-634.675l319.062,-309.75Zm1257.3,1269.35l628.654,634.671l-319.058,309.75l-628.654,-634.671l319.058,-309.75Zm628.654,634.671l628.654,634.675l-319.058,309.75l-628.654,-634.675l319.058,-309.75Zm628.654,634.675l628.655,634.67l-319.059,309.75l-628.654,-634.67l319.059,-309.75Zm1257.31,1269.34l628.654,634.675l-319.058,309.75l-628.654,-634.675l319.058,-309.75Zm2514.62,2538.69l628.654,634.671l-319.059,309.75l-628.654,-634.671l319.059,-309.75Zm2514.61,2538.69l628.654,634.671l-319.058,309.754l-628.654,-634.675l319.058,-309.75Zm1257.31,1269.35l628.655,634.671l-319.059,309.75l-628.654,-634.671l319.058,-309.75Zm628.655,634.671l628.654,634.671l-319.059,309.754l-628.654,-634.675l319.058,-309.75Zm628.655,634.671l628.654,634.675l-319.059,309.75l-628.654,-634.671l319.059,-309.754Zm1257.31,1269.35l628.654,634.675l-319.058,309.75l-628.654,-634.675l319.058,-309.75Zm-12892.1,-12383.7l628.654,634.675l-319.058,309.75l-628.654,-634.675l319.058,-309.75Zm3771.93,3808.03l628.654,634.675l-319.058,309.75l-628.654,-634.671l319.058,-309.754Zm1257.31,1269.35l628.655,634.67l-319.059,309.755l-628.654,-634.675l319.058,-309.75Zm628.654,634.67l628.655,634.675l-319.063,309.75l-628.65,-634.67l319.058,-309.755Zm628.655,634.675l628.654,634.671l-319.063,309.75l-628.654,-634.671l319.063,-309.75Zm628.654,634.671l628.65,634.675l-319.059,309.75l-628.654,-634.675l319.063,-309.75Zm628.65,634.675l628.654,634.671l-319.058,309.75l-628.655,-634.671l319.059,-309.75Zm1257.31,1269.34l628.654,634.675l-319.058,309.75l-628.654,-634.675l319.058,-309.75Zm3771.93,3808.03l628.654,634.675l-319.058,309.75l-628.654,-634.675l319.058,-309.75Zm-12892.1,-12383.7l628.654,634.675l-319.058,309.75l-628.654,-634.671l319.058,-309.754Zm628.654,634.675l628.654,634.671l-319.058,309.75l-628.654,-634.671l319.058,-309.75Zm628.654,634.671l628.655,634.671l-319.059,309.754l-628.654,-634.675l319.058,-309.75Zm628.655,634.671l628.654,634.675l-319.059,309.75l-628.654,-634.671l319.059,-309.754Zm628.654,634.675l628.654,634.67l-319.058,309.75l-628.655,-634.67l319.059,-309.75Zm628.654,634.67l628.654,634.675l-319.058,309.75l-628.654,-634.675l319.058,-309.75Zm628.654,634.675l628.654,634.671l-319.058,309.75l-628.654,-634.671l319.058,-309.75Zm1257.31,1269.34l628.655,634.675l-319.063,309.75l-628.65,-634.675l319.058,-309.75Zm1257.31,1269.35l628.654,634.671l-319.059,309.75l-628.654,-634.671l319.059,-309.75Zm1257.31,1269.35l628.654,634.671l-319.058,309.75l-628.654,-634.671l319.058,-309.75Zm1257.31,1269.34l628.654,634.675l-319.058,309.75l-628.654,-634.67l319.058,-309.755Zm628.654,634.675l628.655,634.671l-319.059,309.75l-628.654,-634.671l319.058,-309.75Zm628.655,634.671l628.654,634.671l-319.059,309.754l-628.654,-634.675l319.059,-309.75Zm628.654,634.671l628.654,634.675l-319.058,309.75l-628.655,-634.671l319.059,-309.754Zm628.654,634.675l628.654,634.671l-319.058,309.75l-628.654,-634.671l319.058,-309.75Zm628.654,634.671l628.654,634.671l-319.058,309.754l-628.654,-634.675l319.058,-309.75Zm628.654,634.671l628.654,634.675l-319.062,309.75l-628.65,-634.671l319.058,-309.754Zm-6605.58,-6036.96l628.654,634.671l-319.058,309.754l-628.654,-634.675l319.058,-309.75Zm628.654,634.671l628.654,634.675l-319.058,309.75l-628.654,-634.671l319.058,-309.754Zm628.654,634.675l628.654,634.671l-319.058,309.75l-628.654,-634.671l319.058,-309.75Zm-7862.92,-7306.33l628.654,634.671l-319.059,309.75l-628.654,-634.671l319.059,-309.75Zm628.654,634.671l628.654,634.671l-319.058,309.754l-628.655,-634.675l319.059,-309.75Zm628.654,634.671l628.654,634.675l-319.058,309.75l-628.654,-634.671l319.058,-309.754Zm628.654,634.675l628.654,634.67l-319.058,309.75l-628.654,-634.67l319.058,-309.75Zm628.654,634.67l628.654,634.671l-319.058,309.754l-628.654,-634.675l319.058,-309.75Zm1257.31,1269.35l628.654,634.671l-319.063,309.75l-628.654,-634.671l319.063,-309.75Zm628.654,634.671l628.65,634.675l-319.059,309.75l-628.654,-634.675l319.063,-309.75Zm628.65,634.675l628.654,634.671l-319.058,309.75l-628.655,-634.671l319.059,-309.75Zm628.654,634.671l628.654,634.671l-319.058,309.75l-628.654,-634.671l319.058,-309.75Zm1885.96,1904.02l628.655,634.67l-319.059,309.75l-628.654,-634.67l319.058,-309.75Zm628.655,634.67l628.654,634.675l-319.059,309.75l-628.654,-634.675l319.059,-309.75Zm1257.31,1269.35l628.654,634.671l-319.058,309.75l-628.654,-634.671l319.058,-309.75Zm1257.31,1269.35l628.654,634.671l-319.062,309.75l-628.65,-634.671l319.058,-309.75Zm1257.3,1269.34l628.655,634.675l-319.059,309.75l-628.654,-634.671l319.058,-309.754Zm-7862.92,-7306.33l628.654,634.675l-319.058,309.75l-628.655,-634.675l319.059,-309.75Zm628.654,634.675l628.654,634.671l-319.058,309.75l-628.654,-634.671l319.058,-309.75Zm628.654,634.671l628.654,634.671l-319.058,309.754l-628.654,-634.675l319.058,-309.75Zm628.654,634.671l628.654,634.675l-319.058,309.75l-628.654,-634.671l319.058,-309.754Zm3143.27,3173.36l628.654,634.67l-319.058,309.755l-628.654,-634.675l319.058,-309.75Zm628.654,634.67l628.654,634.675l-319.062,309.751l-628.65,-634.671l319.058,-309.754Zm1257.3,1269.35l628.655,634.675l-319.059,309.75l-628.654,-634.675l319.058,-309.75Zm628.655,634.675l628.654,634.671l-319.059,309.75l-628.654,-634.671l319.059,-309.75Zm628.654,634.671l628.654,634.671l-319.058,309.75l-628.655,-634.671l319.059,-309.75Zm-12892.1,-12383.7l628.654,634.671l-319.058,309.75l-628.655,-634.671l319.059,-309.75Zm1257.31,1269.35l628.654,634.671l-319.058,309.75l-628.654,-634.671l319.058,-309.75Zm1257.31,1269.34l628.65,634.675l-319.058,309.75l-628.654,-634.67l319.062,-309.755Zm628.65,634.675l628.655,634.671l-319.059,309.75l-628.654,-634.671l319.058,-309.75Zm628.655,634.671l628.654,634.671l-319.059,309.754l-628.654,-634.675l319.059,-309.75Zm628.654,634.671l628.654,634.675l-319.058,309.75l-628.655,-634.671l319.059,-309.754Zm628.654,634.675l628.654,634.671l-319.058,309.75l-628.654,-634.671l319.058,-309.75Zm628.654,634.671l628.654,634.675l-319.058,309.75l-628.654,-634.675l319.058,-309.75Zm1257.31,1269.35l628.655,634.671l-319.059,309.749l-628.654,-634.67l319.058,-309.75Zm628.655,634.671l628.654,634.675l-319.059,309.749l-628.654,-634.675l319.059,-309.749Zm1885.96,1904.02l628.654,634.675l-319.062,309.75l-628.65,-634.675l319.058,-309.75Zm2514.61,2538.69l628.654,634.671l-319.059,309.75l-628.654,-634.671l319.059,-309.75Zm-11634.8,-11114.4l628.654,634.675l-319.058,309.75l-628.654,-634.671l319.058,-309.754Zm2514.61,2538.69l628.654,634.67l-319.058,309.75l-628.655,-634.67l319.059,-309.75Zm2514.62,2538.69l628.655,634.675l-319.059,309.75l-628.654,-634.675l319.058,-309.75Zm628.655,634.675l628.654,634.671l-319.059,309.75l-628.654,-634.671l319.059,-309.75Zm1257.31,1269.34l628.654,634.675l-319.058,309.75l-628.654,-634.671l319.058,-309.754Zm628.654,634.675l628.654,634.671l-319.062,309.749l-628.65,-634.67l319.058,-309.75Zm1885.96,1904.02l628.655,634.671l-319.059,309.75l-628.654,-634.671l319.058,-309.75Zm1257.31,1269.34l628.654,634.675l-319.058,309.75l-628.655,-634.671l319.059,-309.754Zm628.654,634.675l628.654,634.671l-319.058,309.75l-628.654,-634.671l319.058,-309.75Zm-11006.2,-10479.7l628.65,634.671l-319.058,309.75l-628.654,-634.671l319.062,-309.75Zm628.65,634.671l628.654,634.675l-319.058,309.75l-628.654,-634.675l319.058,-309.75Zm1885.96,1904.02l628.654,634.675l-319.058,309.75l-628.655,-634.671l319.059,-309.754Zm628.654,634.675l628.654,634.671l-319.058,309.75l-628.654,-634.671l319.058,-309.75Zm1885.96,1904.02l628.655,634.67l-319.059,309.75l-628.654,-634.67l319.058,-309.75Zm1257.31,1269.35l628.654,634.671l-319.063,309.75l-628.65,-634.671l319.059,-309.75Zm1257.3,1269.34l628.654,634.675l-319.058,309.75l-628.654,-634.675l319.058,-309.75Zm1257.31,1269.35l628.654,634.671l-319.058,309.75l-628.654,-634.671l319.058,-309.75Zm-5348.29,-4767.62l628.654,634.675l-319.059,309.75l-628.654,-634.675l319.059,-309.75Zm1885.96,1904.02l628.654,634.675l-319.062,309.75l-628.65,-634.675l319.058,-309.75Zm1885.96,1904.02l628.655,634.675l-319.059,309.75l-628.654,-634.671l319.058,-309.754Zm628.655,634.675l628.654,634.671l-319.059,309.75l-628.654,-634.671l319.059,-309.75Zm628.654,634.671l628.654,634.671l-319.058,309.754l-628.655,-634.675l319.059,-309.75Zm628.654,634.671l628.654,634.675l-319.058,309.75l-628.654,-634.671l319.058,-309.754Zm1257.31,1269.35l628.654,634.671l-319.058,309.754l-628.654,-634.675l319.058,-309.75Zm628.654,634.671l628.655,634.675l-319.059,309.75l-628.654,-634.671l319.058,-309.754Zm-12892.1,-12383.7l628.655,634.671l-319.059,309.75l-628.654,-634.671l319.058,-309.75Zm628.655,634.671l628.654,634.671l-319.059,309.75l-628.654,-634.671l319.059,-309.75Zm628.654,634.671l628.654,634.675l-319.058,309.75l-628.655,-634.675l319.059,-309.75Zm628.654,634.675l628.654,634.671l-319.058,309.75l-628.654,-634.671l319.058,-309.75Zm628.654,634.671l628.654,634.671l-319.058,309.75l-628.654,-634.671l319.058,-309.75Zm628.654,634.671l628.654,634.675l-319.058,309.75l-628.654,-634.675l319.058,-309.75Zm628.654,634.675l628.655,634.67l-319.059,309.75l-628.654,-634.67l319.058,-309.75Zm1257.31,1269.34l628.654,634.675l-319.058,309.75l-628.655,-634.671l319.059,-309.754Zm1257.31,1269.35l628.654,634.671l-319.062,309.754l-628.654,-634.675l319.062,-309.75Zm628.654,634.671l628.65,634.675l-319.058,309.75l-628.654,-634.671l319.062,-309.754Zm628.65,634.675l628.654,634.671l-319.058,309.75l-628.654,-634.671l319.058,-309.75Zm3143.27,3173.36l628.654,634.671l-319.058,309.75l-628.654,-634.671l319.058,-309.75Zm628.654,634.671l628.654,634.671l-319.058,309.75l-628.654,-634.671l319.058,-309.75Zm628.654,634.671l628.655,634.675l-319.059,309.75l-628.654,-634.675l319.058,-309.75Zm-12263.5,-11749l628.655,634.671l-319.059,309.75l-628.654,-634.671l319.058,-309.75Zm3771.93,3808.03l628.655,634.671l-319.059,309.75l-628.654,-634.671l319.058,-309.75Zm2514.61,2538.69l628.654,634.675l-319.058,309.75l-628.654,-634.675l319.058,-309.75Zm628.654,634.675l628.654,634.671l-319.058,309.75l-628.654,-634.671l319.058,-309.75Zm628.654,634.671l628.654,634.67l-319.058,309.75l-628.654,-634.67l319.058,-309.75Zm628.654,634.67l628.655,634.675l-319.059,309.751l-628.654,-634.676l319.058,-309.749Zm1257.31,1269.35l628.654,634.671l-319.058,309.754l-628.655,-634.675l319.059,-309.75Zm1257.31,1269.35l628.654,634.671l-319.058,309.75l-628.654,-634.671l319.058,-309.75Zm628.654,634.671l628.654,634.671l-319.058,309.754l-628.654,-634.675l319.058,-309.75Zm-11634.8,-11114.3l628.654,634.67l-319.058,309.75l-628.654,-634.67l319.058,-309.75Zm1257.31,1269.35l628.654,634.671l-319.058,309.75l-628.654,-634.671l319.058,-309.75Zm628.654,634.671l628.655,634.671l-319.059,309.75l-628.654,-634.671l319.058,-309.75Zm628.655,634.671l628.654,634.675l-319.059,309.75l-628.654,-634.675l319.059,-309.75Zm1257.31,1269.35l628.654,634.671l-319.058,309.75l-628.654,-634.671l319.058,-309.75Zm1257.31,1269.35l628.65,634.671l-319.058,309.75l-628.654,-634.671l319.062,-309.75Zm628.65,634.671l628.654,634.67l-319.058,309.755l-628.654,-634.675l319.058,-309.75Zm1257.31,1269.35l628.654,634.671l-319.059,309.75l-628.654,-634.671l319.059,-309.75Zm628.654,634.671l628.654,634.671l-319.058,309.754l-628.655,-634.675l319.059,-309.75Zm1257.31,1269.35l628.654,634.671l-319.058,309.75l-628.654,-634.671l319.058,-309.75Zm1885.96,1904.02l628.654,634.671l-319.059,309.75l-628.654,-634.671l319.059,-309.75Zm-11006.2,-10479.7l628.654,634.671l-319.058,309.754l-628.654,-634.675l319.058,-309.75Zm1257.31,1269.35l628.654,634.671l-319.058,309.75l-628.654,-634.671l319.058,-309.75Zm628.654,634.671l628.655,634.671l-319.059,309.754l-628.654,-634.675l319.058,-309.75Zm628.655,634.671l628.654,634.675l-319.059,309.75l-628.654,-634.671l319.059,-309.754Zm1257.31,1269.35l628.654,634.671l-319.062,309.754l-628.65,-634.675l319.058,-309.75Zm1257.3,1269.35l628.654,634.671l-319.058,309.75l-628.654,-634.671l319.058,-309.75Zm628.654,634.671l628.654,634.675l-319.058,309.75l-628.654,-634.675l319.058,-309.75Zm2514.62,2538.69l628.654,634.671l-319.058,309.75l-628.654,-634.671l319.058,-309.75Zm628.654,634.671l628.654,634.67l-319.058,309.75l-628.654,-634.67l319.058,-309.75Zm1257.31,1269.35l628.655,634.671l-319.059,309.75l-628.654,-634.671l319.058,-309.75Zm1885.96,1904.02l628.65,634.671l-319.058,309.75l-628.655,-634.671l319.063,-309.75Zm-12263.5,-11749l628.654,634.675l-319.058,309.75l-628.654,-634.675l319.058,-309.75Zm1257.31,1269.35l628.654,634.671l-319.058,309.75l-628.654,-634.671l319.058,-309.75Zm628.654,634.671l628.655,634.675l-319.059,309.75l-628.654,-634.675l319.058,-309.75Zm628.655,634.675l628.654,634.671l-319.063,309.75l-628.65,-634.671l319.059,-309.75Zm1257.31,1269.34l628.65,634.675l-319.058,309.75l-628.655,-634.675l319.063,-309.75Zm1257.3,1269.35l628.654,634.67l-319.058,309.75l-628.654,-634.67l319.058,-309.75Zm628.654,634.67l628.654,634.675l-319.058,309.75l-628.654,-634.675l319.058,-309.75Zm1257.31,1269.35l628.654,634.671l-319.059,309.754l-628.654,-634.675l319.059,-309.75Zm628.654,634.671l628.654,634.675l-319.058,309.75l-628.655,-634.671l319.059,-309.754Zm628.654,634.675l628.654,634.671l-319.058,309.75l-628.654,-634.671l319.058,-309.75Zm628.654,634.671l628.654,634.671l-319.058,309.754l-628.654,-634.675l319.058,-309.75Zm1885.96,1904.02l628.65,634.675l-319.059,309.75l-628.654,-634.675l319.063,-309.75Zm628.65,634.675l628.654,634.67l-319.059,309.75l-628.654,-634.67l319.059,-309.75Zm-11634.8,-11114.4l628.654,634.675l-319.058,309.75l-628.654,-634.675l319.058,-309.75Zm3771.92,3808.03l628.654,634.675l-319.058,309.75l-628.654,-634.671l319.058,-309.754Zm1257.31,1269.35l628.655,634.671l-319.059,309.754l-628.654,-634.675l319.058,-309.75Zm1257.31,1269.35l628.654,634.67l-319.058,309.75l-628.655,-634.67l319.059,-309.75Zm628.654,634.67l628.654,634.675l-319.058,309.75l-628.654,-634.675l319.058,-309.75Zm628.654,634.675l628.654,634.671l-319.058,309.75l-628.654,-634.671l319.058,-309.75Zm628.654,634.671l628.654,634.671l-319.058,309.75l-628.654,-634.671l319.058,-309.75Zm1257.31,1269.35l628.654,634.671l-319.063,309.75l-628.65,-634.671l319.059,-309.75Zm1257.3,1269.34l628.654,634.675l-319.058,309.75l-628.655,-634.675l319.059,-309.75Zm628.654,634.675l628.654,634.671l-319.058,309.75l-628.654,-634.671l319.058,-309.75Zm-11634.8,-11114.4l628.654,634.675l-319.059,309.75l-628.654,-634.671l319.059,-309.754Zm628.654,634.675l628.654,634.671l-319.058,309.75l-628.655,-634.671l319.059,-309.75Zm628.654,634.671l628.654,634.67l-319.062,309.755l-628.65,-634.675l319.058,-309.75Zm628.654,634.67l628.65,634.675l-319.058,309.75l-628.654,-634.67l319.062,-309.755Zm628.65,634.675l628.654,634.671l-319.058,309.75l-628.654,-634.671l319.058,-309.75Zm628.654,634.671l628.654,634.675l-319.058,309.75l-628.654,-634.675l319.058,-309.75Zm628.654,634.675l628.655,634.671l-319.059,309.75l-628.654,-634.671l319.058,-309.75Zm1257.31,1269.34l628.654,634.675l-319.058,309.75l-628.655,-634.675l319.059,-309.75Zm628.654,634.675l628.654,634.671l-319.058,309.75l-628.654,-634.671l319.058,-309.75Zm628.654,634.671l628.654,634.671l-319.058,309.75l-628.654,-634.671l319.058,-309.75Zm628.654,634.671l628.654,634.675l-319.058,309.75l-628.654,-634.675l319.058,-309.75Zm1885.96,1904.02l628.654,634.675l-319.063,309.75l-628.65,-634.671l319.059,-309.754Zm628.654,634.675l628.65,634.671l-319.058,309.75l-628.655,-634.671l319.063,-309.75Zm1257.3,1269.34l628.654,634.675l-319.058,309.75l-628.654,-634.671l319.058,-309.754Zm1257.31,1269.35l628.655,634.671l-319.059,309.754l-628.654,-634.675l319.058,-309.75Z" style="fill-rule:nonzero;"/></g><g id="elements1" serif:id="elements"><path d="M-2030.27,88.238l628.654,634.675l-319.058,309.75l-628.654,-634.671l319.058,-309.754Zm628.654,634.675l628.654,634.67l-319.058,309.75l-628.654,-634.671l319.058,-309.75Zm628.654,634.671l628.655,634.675l-319.059,309.75l-628.654,-634.675l319.058,-309.75Zm628.655,634.675l628.654,634.671l-319.059,309.75l-628.654,-634.671l319.059,-309.75Zm628.654,634.671l628.654,634.671l-319.062,309.75l-628.651,-634.671l319.059,-309.75Zm628.654,634.671l628.654,634.675l-319.062,309.75l-628.654,-634.675l319.062,-309.75Zm628.654,634.675l628.65,634.671l-319.058,309.75l-628.654,-634.671l319.062,-309.75Zm5029.25,5077.38l628.654,634.675l-319.058,309.75l-628.654,-634.671l319.058,-309.754Zm628.654,634.675l628.654,634.671l-319.058,309.75l-628.654,-634.671l319.058,-309.75Zm628.654,634.671l628.655,634.671l-319.063,309.754l-628.65,-634.675l319.058,-309.75Zm628.655,634.671l628.65,634.675l-319.059,309.75l-628.654,-634.671l319.063,-309.754Zm628.65,634.675l628.654,634.671l-319.059,309.75l-628.654,-634.671l319.059,-309.75Zm628.654,634.671l628.654,634.675l-319.058,309.75l-628.655,-634.675l319.059,-309.75Zm628.654,634.675l628.654,634.67l-319.058,309.75l-628.654,-634.67l319.058,-309.75Zm-12892.1,-12383.7l628.654,634.671l-319.058,309.75l-628.654,-634.671l319.058,-309.75Zm3771.92,3808.03l628.654,634.67l-319.058,309.75l-628.655,-634.67l319.059,-309.75Zm1257.31,1269.34l628.654,634.675l-319.058,309.75l-628.654,-634.671l319.058,-309.754Zm1885.96,1904.02l628.654,634.675l-319.059,309.75l-628.654,-634.671l319.059,-309.754Zm628.654,634.675l628.654,634.671l-319.058,309.75l-628.655,-634.671l319.059,-309.75Zm1257.31,1269.35l628.654,634.671l-319.058,309.75l-628.654,-634.671l319.058,-309.75Zm3771.92,3808.03l628.654,634.671l-319.058,309.75l-628.654,-634.671l319.058,-309.75Zm-12892.1,-12383.7l628.654,634.671l-319.058,309.75l-628.654,-634.671l319.058,-309.75Zm1257.31,1269.34l628.654,634.675l-319.062,309.75l-628.65,-634.67l319.058,-309.755Zm628.654,634.675l628.65,634.671l-319.058,309.75l-628.654,-634.671l319.062,-309.75Zm628.65,634.671l628.655,634.675l-319.059,309.75l-628.654,-634.675l319.058,-309.75Zm1257.31,1269.35l628.654,634.671l-319.058,309.75l-628.655,-634.671l319.059,-309.75Zm1885.96,1904.02l628.654,634.671l-319.058,309.749l-628.654,-634.67l319.058,-309.75Zm1257.31,1269.35l628.654,634.67l-319.059,309.75l-628.654,-634.67l319.059,-309.75Zm1885.96,1904.02l628.654,634.671l-319.062,309.75l-628.654,-634.671l319.062,-309.75Zm1257.3,1269.34l628.655,634.675l-319.059,309.75l-628.654,-634.671l319.058,-309.754Zm628.655,634.675l628.654,634.671l-319.059,309.75l-628.654,-634.671l319.059,-309.75Zm628.654,634.671l628.654,634.671l-319.058,309.754l-628.655,-634.675l319.059,-309.75Zm1257.31,1269.35l628.654,634.67l-319.058,309.75l-628.654,-634.67l319.058,-309.75Zm-12892.1,-12383.7l628.654,634.671l-319.062,309.75l-628.65,-634.671l319.058,-309.75Zm1257.31,1269.35l628.65,634.671l-319.058,309.75l-628.654,-634.671l319.062,-309.75Zm628.65,634.671l628.655,634.671l-319.059,309.75l-628.654,-634.671l319.058,-309.75Zm628.655,634.671l628.654,634.675l-319.059,309.75l-628.654,-634.675l319.059,-309.75Zm1257.31,1269.35l628.654,634.67l-319.058,309.755l-628.654,-634.675l319.058,-309.75Zm1257.31,1269.35l628.654,634.671l-319.058,309.75l-628.654,-634.671l319.058,-309.75Zm628.654,634.671l628.655,634.671l-319.059,309.754l-628.654,-634.675l319.058,-309.75Zm1257.31,1269.35l628.654,634.671l-319.058,309.75l-628.655,-634.671l319.059,-309.75Zm628.654,634.671l628.654,634.671l-319.062,309.754l-628.65,-634.675l319.058,-309.75Zm1257.3,1269.35l628.654,634.671l-319.058,309.75l-628.654,-634.671l319.058,-309.75Zm1257.31,1269.35l628.655,634.67l-319.059,309.75l-628.654,-634.67l319.058,-309.75Zm628.655,634.67l628.654,634.671l-319.059,309.75l-628.654,-634.671l319.059,-309.75Zm628.654,634.671l628.654,634.675l-319.058,309.75l-628.655,-634.675l319.059,-309.75Zm1257.31,1269.35l628.654,634.671l-319.058,309.75l-628.654,-634.671l319.058,-309.75Zm-12892.1,-12383.7l628.65,634.671l-319.058,309.754l-628.655,-634.675l319.063,-309.75Zm1257.3,1269.35l628.654,634.67l-319.058,309.75l-628.654,-634.67l319.058,-309.75Zm628.654,634.67l628.654,634.671l-319.058,309.754l-628.654,-634.675l319.058,-309.75Zm628.654,634.671l628.655,634.675l-319.059,309.75l-628.654,-634.671l319.058,-309.754Zm1257.31,1269.35l628.654,634.675l-319.058,309.75l-628.655,-634.675l319.059,-309.75Zm2514.62,2538.69l628.655,634.671l-319.059,309.75l-628.654,-634.671l319.058,-309.75Zm2514.61,2538.69l628.654,634.671l-319.058,309.75l-628.654,-634.671l319.058,-309.75Zm1257.31,1269.35l628.654,634.671l-319.058,309.75l-628.654,-634.671l319.058,-309.75Zm628.654,634.671l628.655,634.671l-319.059,309.754l-628.654,-634.675l319.058,-309.75Zm628.655,634.671l628.654,634.675l-319.059,309.75l-628.654,-634.671l319.059,-309.754Zm1257.31,1269.35l628.654,634.67l-319.058,309.755l-628.654,-634.675l319.058,-309.751Zm-12892.1,-12383.7l628.654,634.675l-319.058,309.75l-628.654,-634.675l319.058,-309.75Zm3771.93,3808.03l628.654,634.675l-319.058,309.75l-628.654,-634.675l319.058,-309.75Zm1257.31,1269.35l628.654,634.671l-319.058,309.75l-628.654,-634.671l319.058,-309.75Zm628.654,634.671l628.655,634.675l-319.059,309.75l-628.654,-634.675l319.058,-309.75Zm628.655,634.675l628.654,634.671l-319.063,309.75l-628.65,-634.671l319.059,-309.75Zm628.654,634.671l628.65,634.671l-319.059,309.754l-628.654,-634.675l319.063,-309.75Zm628.65,634.671l628.654,634.675l-319.058,309.75l-628.655,-634.671l319.059,-309.754Zm1257.31,1269.35l628.654,634.671l-319.058,309.754l-628.654,-634.675l319.058,-309.75Zm3771.93,3808.03l628.654,634.675l-319.058,309.75l-628.654,-634.675l319.058,-309.75Zm-12892.1,-12383.7l628.654,634.675l-319.058,309.75l-628.654,-634.675l319.058,-309.75Zm628.654,634.675l628.654,634.67l-319.058,309.75l-628.654,-634.67l319.058,-309.75Zm628.654,634.67l628.655,634.671l-319.059,309.754l-628.654,-634.675l319.058,-309.75Zm628.655,634.671l628.654,634.675l-319.059,309.75l-628.654,-634.671l319.059,-309.754Zm628.654,634.675l628.654,634.671l-319.058,309.75l-628.655,-634.671l319.059,-309.75Zm628.654,634.671l628.654,634.671l-319.058,309.754l-628.654,-634.675l319.058,-309.75Zm628.654,634.671l628.654,634.675l-319.058,309.75l-628.654,-634.671l319.058,-309.754Zm1257.31,1269.35l628.655,634.671l-319.063,309.754l-628.65,-634.675l319.058,-309.75Zm1257.31,1269.35l628.65,634.67l-319.059,309.75l-628.654,-634.67l319.063,-309.75Zm1257.3,1269.35l628.654,634.671l-319.058,309.75l-628.654,-634.671l319.058,-309.75Zm1257.31,1269.34l628.654,634.675l-319.058,309.75l-628.654,-634.675l319.058,-309.75Zm628.654,634.675l628.655,634.671l-319.059,309.75l-628.654,-634.671l319.058,-309.75Zm628.655,634.671l628.654,634.671l-319.059,309.75l-628.654,-634.671l319.059,-309.75Zm628.654,634.671l628.654,634.675l-319.058,309.75l-628.655,-634.675l319.059,-309.75Zm628.654,634.675l628.654,634.671l-319.058,309.75l-628.654,-634.671l319.058,-309.75Zm628.654,634.671l628.654,634.67l-319.058,309.755l-628.654,-634.675l319.058,-309.75Zm628.654,634.67l628.654,634.675l-319.062,309.751l-628.65,-634.671l319.058,-309.754Zm-6605.58,-6036.96l628.654,634.671l-319.058,309.75l-628.654,-634.671l319.058,-309.75Zm628.654,634.671l628.654,634.675l-319.058,309.75l-628.654,-634.675l319.058,-309.75Zm628.654,634.675l628.654,634.671l-319.058,309.75l-628.654,-634.671l319.058,-309.75Zm-7862.92,-7306.33l628.654,634.671l-319.059,309.75l-628.654,-634.671l319.059,-309.75Zm628.654,634.671l628.654,634.67l-319.058,309.75l-628.655,-634.67l319.059,-309.75Zm628.654,634.67l628.654,634.675l-319.058,309.75l-628.654,-634.675l319.058,-309.75Zm628.654,634.675l628.654,634.671l-319.058,309.75l-628.654,-634.671l319.058,-309.75Zm628.654,634.671l628.654,634.671l-319.058,309.754l-628.654,-634.675l319.058,-309.75Zm1257.31,1269.35l628.654,634.671l-319.063,309.75l-628.65,-634.671l319.059,-309.75Zm628.654,634.671l628.65,634.671l-319.059,309.754l-628.654,-634.675l319.063,-309.75Zm628.65,634.671l628.654,634.675l-319.058,309.75l-628.655,-634.671l319.059,-309.754Zm628.654,634.675l628.654,634.67l-319.058,309.751l-628.654,-634.671l319.058,-309.75Zm1885.96,1904.02l628.655,634.671l-319.059,309.75l-628.654,-634.671l319.058,-309.75Zm628.655,634.671l628.654,634.675l-319.059,309.75l-628.654,-634.675l319.059,-309.75Zm1257.31,1269.35l628.654,634.671l-319.058,309.75l-628.654,-634.671l319.058,-309.75Zm1257.31,1269.35l628.654,634.671l-319.062,309.75l-628.65,-634.671l319.058,-309.75Zm1257.31,1269.34l628.65,634.674l-319.059,309.751l-628.654,-634.675l319.063,-309.751Zm-7862.92,-7306.33l628.654,634.675l-319.058,309.75l-628.654,-634.675l319.058,-309.75Zm628.654,634.675l628.654,634.671l-319.058,309.75l-628.654,-634.671l319.058,-309.75Zm628.654,634.671l628.654,634.671l-319.058,309.75l-628.654,-634.671l319.058,-309.75Zm628.654,634.671l628.655,634.675l-319.059,309.75l-628.654,-634.675l319.058,-309.75Zm3143.27,3173.36l628.654,634.671l-319.058,309.754l-628.654,-634.675l319.058,-309.75Zm628.654,634.671l628.655,634.675l-319.063,309.75l-628.65,-634.671l319.058,-309.754Zm1257.31,1269.35l628.654,634.671l-319.059,309.754l-628.654,-634.675l319.059,-309.75Zm628.654,634.671l628.654,634.675l-319.058,309.75l-628.655,-634.671l319.059,-309.754Zm628.654,634.675l628.654,634.671l-319.058,309.75l-628.654,-634.671l319.058,-309.75Zm-12892.1,-12383.7l628.654,634.671l-319.058,309.75l-628.654,-634.671l319.058,-309.75Zm1257.31,1269.35l628.654,634.671l-319.058,309.75l-628.654,-634.671l319.058,-309.75Zm1257.31,1269.34l628.65,634.675l-319.059,309.75l-628.654,-634.675l319.063,-309.75Zm628.65,634.675l628.654,634.671l-319.059,309.75l-628.654,-634.671l319.059,-309.75Zm628.654,634.671l628.654,634.671l-319.058,309.754l-628.655,-634.675l319.059,-309.75Zm628.654,634.671l628.654,634.675l-319.058,309.75l-628.654,-634.671l319.058,-309.754Zm628.654,634.675l628.654,634.67l-319.058,309.75l-628.654,-634.67l319.058,-309.75Zm628.654,634.67l628.654,634.671l-319.058,309.754l-628.654,-634.675l319.058,-309.75Zm1257.31,1269.35l628.654,634.671l-319.059,309.75l-628.654,-634.671l319.059,-309.75Zm628.654,634.671l628.654,634.671l-319.058,309.754l-628.655,-634.675l319.059,-309.75Zm1885.96,1904.02l628.654,634.675l-319.062,309.75l-628.65,-634.675l319.058,-309.75Zm2514.61,2538.69l628.654,634.671l-319.058,309.75l-628.655,-634.671l319.059,-309.75Zm-11634.8,-11114.4l628.655,634.675l-319.059,309.75l-628.654,-634.67l319.058,-309.755Zm2514.61,2538.69l628.654,634.671l-319.058,309.75l-628.654,-634.671l319.058,-309.75Zm2514.62,2538.69l628.654,634.675l-319.059,309.75l-628.654,-634.675l319.059,-309.75Zm628.654,634.675l628.654,634.67l-319.058,309.75l-628.655,-634.67l319.059,-309.75Zm1257.31,1269.34l628.654,634.675l-319.058,309.75l-628.654,-634.675l319.058,-309.75Zm628.654,634.675l628.654,634.671l-319.058,309.75l-628.654,-634.671l319.058,-309.75Zm1885.96,1904.02l628.654,634.671l-319.059,309.75l-628.654,-634.671l319.059,-309.75Zm1257.31,1269.34l628.654,634.675l-319.058,309.75l-628.654,-634.671l319.058,-309.754Zm628.654,634.675l628.654,634.67l-319.058,309.75l-628.654,-634.67l319.058,-309.75Zm-11006.2,-10479.7l628.65,634.671l-319.058,309.75l-628.654,-634.671l319.062,-309.75Zm628.65,634.671l628.655,634.675l-319.059,309.75l-628.654,-634.675l319.058,-309.75Zm1885.96,1904.02l628.654,634.675l-319.058,309.75l-628.654,-634.675l319.058,-309.75Zm628.654,634.675l628.654,634.671l-319.058,309.75l-628.654,-634.671l319.058,-309.75Zm1885.96,1904.02l628.654,634.671l-319.059,309.75l-628.654,-634.671l319.059,-309.75Zm1257.31,1269.34l628.654,634.675l-319.062,309.75l-628.65,-634.671l319.058,-309.754Zm1257.31,1269.35l628.65,634.67l-319.058,309.755l-628.654,-634.675l319.062,-309.75Zm1257.3,1269.35l628.655,634.671l-319.059,309.75l-628.654,-634.671l319.058,-309.75Zm-5348.29,-4767.62l628.654,634.675l-319.058,309.75l-628.655,-634.675l319.059,-309.75Zm1885.96,1904.02l628.654,634.675l-319.062,309.75l-628.65,-634.675l319.058,-309.75Zm1885.96,1904.02l628.654,634.675l-319.059,309.75l-628.654,-634.675l319.059,-309.75Zm628.654,634.675l628.654,634.671l-319.058,309.75l-628.655,-634.671l319.059,-309.75Zm628.654,634.671l628.654,634.67l-319.058,309.75l-628.654,-634.67l319.058,-309.75Zm628.654,634.67l628.654,634.675l-319.058,309.75l-628.654,-634.675l319.058,-309.75Zm1257.31,1269.35l628.655,634.671l-319.059,309.754l-628.654,-634.675l319.058,-309.75Zm628.655,634.671l628.654,634.675l-319.059,309.75l-628.654,-634.671l319.059,-309.754Zm-12892.1,-12383.7l628.654,634.675l-319.059,309.75l-628.654,-634.671l319.059,-309.754Zm628.654,634.675l628.654,634.671l-319.058,309.75l-628.655,-634.671l319.059,-309.75Zm628.654,634.671l628.654,634.675l-319.058,309.75l-628.654,-634.675l319.058,-309.75Zm628.654,634.675l628.654,634.67l-319.058,309.75l-628.654,-634.67l319.058,-309.75Zm628.654,634.67l628.654,634.671l-319.058,309.75l-628.654,-634.671l319.058,-309.75Zm628.654,634.671l628.655,634.675l-319.059,309.75l-628.654,-634.675l319.058,-309.75Zm628.655,634.675l628.654,634.671l-319.059,309.75l-628.654,-634.671l319.059,-309.75Zm1257.31,1269.34l628.654,634.675l-319.058,309.75l-628.654,-634.675l319.058,-309.75Zm1257.31,1269.35l628.654,634.671l-319.062,309.754l-628.65,-634.675l319.058,-309.75Zm628.654,634.671l628.65,634.675l-319.058,309.75l-628.654,-634.671l319.062,-309.754Zm628.65,634.675l628.655,634.67l-319.059,309.75l-628.654,-634.67l319.058,-309.75Zm3143.27,3173.36l628.654,634.675l-319.058,309.75l-628.654,-634.671l319.058,-309.754Zm628.654,634.675l628.655,634.671l-319.059,309.75l-628.654,-634.671l319.058,-309.75Zm628.655,634.671l628.654,634.675l-319.059,309.75l-628.654,-634.675l319.059,-309.75Zm-12263.5,-11749l628.654,634.671l-319.059,309.75l-628.654,-634.671l319.059,-309.75Zm3771.93,3808.03l628.654,634.671l-319.059,309.75l-628.654,-634.671l319.059,-309.75Zm2514.62,2538.69l628.65,634.675l-319.058,309.75l-628.654,-634.675l319.062,-309.75Zm628.65,634.675l628.654,634.671l-319.058,309.749l-628.654,-634.67l319.058,-309.75Zm628.654,634.671l628.655,634.67l-319.059,309.75l-628.654,-634.671l319.058,-309.749Zm628.655,634.67l628.654,634.675l-319.059,309.75l-628.654,-634.675l319.059,-309.75Zm1257.31,1269.35l628.654,634.671l-319.058,309.75l-628.654,-634.671l319.058,-309.75Zm1257.31,1269.35l628.654,634.671l-319.058,309.75l-628.654,-634.671l319.058,-309.75Zm628.654,634.671l628.655,634.671l-319.059,309.75l-628.654,-634.671l319.058,-309.75Zm-11634.8,-11114.3l628.654,634.671l-319.058,309.75l-628.654,-634.671l319.058,-309.749Zm1257.31,1269.34l628.655,634.675l-319.059,309.75l-628.654,-634.671l319.058,-309.754Zm628.655,634.675l628.654,634.671l-319.059,309.75l-628.654,-634.671l319.059,-309.75Zm628.654,634.671l628.654,634.675l-319.058,309.75l-628.655,-634.675l319.059,-309.75Zm1257.31,1269.35l628.654,634.671l-319.058,309.75l-628.654,-634.671l319.058,-309.75Zm1257.31,1269.35l628.655,634.67l-319.063,309.751l-628.654,-634.671l319.062,-309.75Zm628.655,634.67l628.65,634.671l-319.059,309.75l-628.654,-634.671l319.063,-309.75Zm1257.3,1269.35l628.654,634.671l-319.058,309.75l-628.655,-634.671l319.059,-309.75Zm628.654,634.671l628.654,634.671l-319.058,309.75l-628.654,-634.671l319.058,-309.75Zm1257.31,1269.35l628.654,634.671l-319.058,309.75l-628.654,-634.671l319.058,-309.75Zm1885.96,1904.02l628.654,634.67l-319.058,309.75l-628.655,-634.67l319.059,-309.75Zm-11006.2,-10479.7l628.654,634.671l-319.058,309.75l-628.654,-634.671l319.058,-309.75Zm1257.31,1269.35l628.655,634.671l-319.059,309.75l-628.654,-634.671l319.058,-309.75Zm628.655,634.671l628.654,634.67l-319.059,309.75l-628.654,-634.67l319.059,-309.75Zm628.654,634.67l628.654,634.675l-319.058,309.751l-628.655,-634.676l319.059,-309.75Zm1257.31,1269.35l628.654,634.671l-319.062,309.754l-628.65,-634.675l319.058,-309.75Zm1257.3,1269.35l628.654,634.671l-319.058,309.75l-628.654,-634.671l319.058,-309.75Zm628.654,634.671l628.655,634.671l-319.059,309.754l-628.654,-634.675l319.058,-309.75Zm2514.62,2538.69l628.654,634.675l-319.058,309.75l-628.654,-634.67l319.058,-309.755Zm628.654,634.675l628.654,634.671l-319.058,309.75l-628.654,-634.671l319.058,-309.75Zm1257.31,1269.35l628.654,634.671l-319.059,309.75l-628.654,-634.671l319.059,-309.75Zm1885.96,1904.02l628.65,634.671l-319.058,309.75l-628.654,-634.671l319.062,-309.75Zm-12263.5,-11749l628.654,634.671l-319.058,309.754l-628.654,-634.675l319.058,-309.75Zm1257.31,1269.35l628.655,634.671l-319.059,309.75l-628.654,-634.671l319.058,-309.75Zm628.655,634.671l628.654,634.671l-319.059,309.754l-628.654,-634.675l319.059,-309.75Zm628.654,634.671l628.654,634.675l-319.058,309.75l-628.655,-634.671l319.059,-309.754Zm1257.31,1269.35l628.65,634.675l-319.058,309.75l-628.654,-634.675l319.062,-309.75Zm1257.3,1269.35l628.654,634.671l-319.058,309.75l-628.654,-634.67l319.058,-309.751Zm628.654,634.671l628.655,634.675l-319.059,309.75l-628.654,-634.675l319.058,-309.75Zm1257.31,1269.35l628.654,634.671l-319.058,309.75l-628.655,-634.671l319.059,-309.75Zm628.654,634.671l628.654,634.675l-319.058,309.75l-628.654,-634.675l319.058,-309.75Zm628.654,634.675l628.654,634.671l-319.058,309.75l-628.654,-634.671l319.058,-309.75Zm628.654,634.671l628.654,634.671l-319.058,309.75l-628.654,-634.671l319.058,-309.75Zm1885.96,1904.02l628.654,634.671l-319.063,309.755l-628.654,-634.675l319.063,-309.75Zm628.654,634.67l628.65,634.675l-319.058,309.75l-628.655,-634.67l319.063,-309.755Zm-11634.8,-11114.3l628.654,634.675l-319.059,309.75l-628.654,-634.675l319.059,-309.75Zm3771.92,3808.03l628.655,634.675l-319.059,309.75l-628.654,-634.675l319.058,-309.75Zm1257.31,1269.35l628.654,634.671l-319.058,309.754l-628.655,-634.675l319.059,-309.75Zm1257.31,1269.35l628.654,634.671l-319.058,309.75l-628.654,-634.671l319.058,-309.75Zm628.654,634.671l628.654,634.671l-319.058,309.754l-628.654,-634.675l319.058,-309.75Zm628.654,634.671l628.655,634.675l-319.059,309.75l-628.654,-634.671l319.058,-309.754Zm628.655,634.675l628.654,634.671l-319.059,309.75l-628.654,-634.671l319.059,-309.75Zm1257.31,1269.34l628.654,634.675l-319.062,309.75l-628.65,-634.67l319.058,-309.755Zm1257.3,1269.35l628.654,634.675l-319.058,309.75l-628.654,-634.675l319.058,-309.75Zm628.654,634.675l628.654,634.671l-319.058,309.75l-628.654,-634.671l319.058,-309.75Zm-11634.8,-11114.4l628.654,634.675l-319.058,309.75l-628.654,-634.675l319.058,-309.75Zm628.654,634.675l628.654,634.671l-319.058,309.75l-628.654,-634.671l319.058,-309.75Zm628.654,634.671l628.654,634.671l-319.062,309.754l-628.65,-634.675l319.058,-309.75Zm628.654,634.671l628.65,634.675l-319.058,309.75l-628.654,-634.671l319.062,-309.754Zm628.65,634.675l628.655,634.671l-319.059,309.75l-628.654,-634.671l319.058,-309.75Zm628.655,634.671l628.654,634.67l-319.059,309.755l-628.654,-634.675l319.059,-309.75Zm628.654,634.67l628.654,634.675l-319.058,309.751l-628.655,-634.671l319.059,-309.754Zm1257.31,1269.35l628.654,634.675l-319.058,309.75l-628.654,-634.675l319.058,-309.75Zm628.654,634.675l628.654,634.671l-319.058,309.75l-628.654,-634.671l319.058,-309.75Zm628.654,634.671l628.655,634.671l-319.059,309.75l-628.654,-634.671l319.058,-309.75Zm628.655,634.671l628.654,634.675l-319.059,309.75l-628.654,-634.675l319.059,-309.75Zm1885.96,1904.02l628.654,634.675l-319.062,309.75l-628.65,-634.675l319.058,-309.75Zm628.654,634.675l628.65,634.671l-319.058,309.75l-628.654,-634.671l319.062,-309.75Zm1257.3,1269.34l628.655,634.675l-319.059,309.75l-628.654,-634.675l319.058,-309.75Zm1257.31,1269.35l628.654,634.671l-319.058,309.754l-628.655,-634.675l319.059,-309.75Z" style="fill-rule:nonzero;"/></g><g id="elements2" serif:id="elements"><path d="M5839.54,-5530.42l811.666,819.863l-622.158,611.321l-811.671,-819.863l622.163,-611.321Zm811.666,819.863l811.671,819.862l-622.158,611.321l-811.671,-819.862l622.158,-611.321Zm811.671,819.862l811.671,819.863l-622.158,611.325l-811.671,-819.867l622.158,-611.321Zm811.671,819.863l811.671,819.867l-622.158,611.32l-811.671,-819.862l622.158,-611.325Zm811.671,819.867l811.671,819.862l-622.159,611.321l-811.671,-819.863l622.159,-611.32Zm811.671,819.862l811.671,819.863l-622.159,611.32l-811.671,-819.862l622.159,-611.321Zm811.671,819.863l811.67,819.862l-622.162,611.325l-811.667,-819.867l622.158,-611.32Zm6493.38,6558.92l811.67,819.863l-622.162,611.325l-811.667,-819.863l622.159,-611.325Zm811.67,819.863l811.671,819.866l-622.162,611.321l-811.671,-819.862l622.162,-611.325Zm811.671,819.866l811.667,819.863l-622.158,611.321l-811.671,-819.863l622.162,-611.321Zm811.667,819.863l811.671,819.862l-622.159,611.325l-811.67,-819.866l622.158,-611.321Zm811.671,819.862l811.671,819.867l-622.159,611.321l-811.671,-819.863l622.159,-611.325Zm811.671,819.867l811.67,819.863l-622.158,611.32l-811.671,-819.862l622.159,-611.321Zm811.67,819.863l811.671,819.862l-622.158,611.321l-811.671,-819.863l622.158,-611.32Zm-16855.6,-15786l811.671,819.863l-622.158,611.325l-811.671,-819.867l622.158,-611.321Zm4870.04,4919.17l811.666,819.867l-622.158,611.32l-811.671,-819.862l622.163,-611.325Zm1623.34,1639.73l811.671,819.863l-622.158,611.325l-811.671,-819.867l622.158,-611.321Zm2435.01,2459.59l811.671,819.862l-622.159,611.321l-811.671,-819.862l622.159,-611.321Zm811.671,819.862l811.67,819.863l-622.162,611.325l-811.667,-819.867l622.159,-611.321Zm1623.34,1639.73l811.667,819.863l-622.158,611.321l-811.671,-819.863l622.162,-611.321Zm4870.04,4919.17l811.671,819.863l-622.163,611.325l-811.666,-819.867l622.158,-611.321Zm-16855.6,-15786l811.67,819.866l-622.158,611.321l-811.671,-819.862l622.159,-611.325Zm1623.34,1639.73l811.671,819.862l-622.162,611.321l-811.671,-819.862l622.162,-611.321Zm811.671,819.862l811.667,819.863l-622.159,611.325l-811.67,-819.867l622.162,-611.321Zm811.667,819.863l811.671,819.867l-622.159,611.32l-811.671,-819.862l622.159,-611.325Zm1623.34,1639.73l811.671,819.863l-622.158,611.32l-811.671,-819.862l622.158,-611.321Zm2435.01,2459.59l811.671,819.862l-622.163,611.321l-811.666,-819.862l622.158,-611.321Zm1623.34,1639.73l811.67,819.862l-622.162,611.325l-811.671,-819.866l622.163,-611.321Zm2435.01,2459.59l811.671,819.863l-622.159,611.325l-811.67,-819.867l622.158,-611.321Zm1623.34,1639.73l811.67,819.867l-622.158,611.321l-811.671,-819.863l622.159,-611.325Zm811.67,819.867l811.671,819.863l-622.158,611.32l-811.671,-819.862l622.158,-611.321Zm811.671,819.863l811.671,819.862l-622.162,611.325l-811.667,-819.867l622.158,-611.32Zm1623.34,1639.73l811.667,819.866l-622.159,611.321l-811.671,-819.862l622.163,-611.325Zm-16855.6,-15786l811.67,819.863l-622.162,611.321l-811.671,-819.863l622.163,-611.321Zm1623.34,1639.73l811.671,819.863l-622.158,611.325l-811.671,-819.867l622.158,-611.321Zm811.671,819.863l811.671,819.866l-622.159,611.321l-811.67,-819.862l622.158,-611.325Zm811.671,819.866l811.671,819.863l-622.159,611.321l-811.671,-819.863l622.159,-611.321Zm1623.34,1639.73l811.671,819.863l-622.158,611.325l-811.671,-819.863l622.158,-611.325Zm1623.34,1639.73l811.671,819.862l-622.163,611.321l-811.67,-819.863l622.162,-611.32Zm811.671,819.862l811.667,819.863l-622.159,611.325l-811.671,-819.867l622.163,-611.321Zm1623.34,1639.73l811.671,819.867l-622.158,611.321l-811.671,-819.863l622.158,-611.325Zm811.671,819.867l811.671,819.862l-622.158,611.321l-811.671,-819.862l622.158,-611.321Zm1623.34,1639.73l811.671,819.866l-622.159,611.321l-811.67,-819.862l622.158,-611.325Zm1623.34,1639.73l811.67,819.862l-622.162,611.321l-811.671,-819.862l622.163,-611.321Zm811.67,819.862l811.671,819.863l-622.162,611.325l-811.671,-819.867l622.162,-611.321Zm811.671,819.863l811.667,819.867l-622.158,611.32l-811.671,-819.862l622.162,-611.325Zm1623.34,1639.73l811.671,819.862l-622.159,611.321l-811.671,-819.862l622.159,-611.321Zm-16855.6,-15786l811.671,819.862l-622.158,611.325l-811.671,-819.867l622.158,-611.32Zm1623.34,1639.73l811.671,819.866l-622.158,611.321l-811.671,-819.862l622.158,-611.325Zm811.671,819.866l811.671,819.863l-622.159,611.321l-811.67,-819.863l622.158,-611.321Zm811.671,819.863l811.671,819.862l-622.159,611.325l-811.671,-819.866l622.159,-611.321Zm1623.34,1639.73l811.671,819.862l-622.162,611.321l-811.671,-819.862l622.162,-611.321Zm3246.68,3279.45l811.67,819.863l-622.158,611.32l-811.671,-819.862l622.159,-611.321Zm3246.68,3279.45l811.671,819.863l-622.163,611.321l-811.671,-819.863l622.163,-611.321Zm1623.34,1639.73l811.671,819.863l-622.158,611.325l-811.671,-819.867l622.158,-611.321Zm811.671,819.863l811.671,819.866l-622.158,611.321l-811.671,-819.862l622.158,-611.325Zm811.671,819.866l811.671,819.863l-622.158,611.321l-811.671,-819.863l622.158,-611.321Zm1623.34,1639.73l811.671,819.863l-622.159,611.325l-811.671,-819.867l622.159,-611.321Zm-16855.6,-15786l811.671,819.867l-622.158,611.321l-811.671,-819.863l622.158,-611.325Zm4870.04,4919.17l811.671,819.862l-622.158,611.321l-811.671,-819.862l622.158,-611.321Zm1623.34,1639.73l811.671,819.866l-622.159,611.321l-811.671,-819.862l622.159,-611.325Zm811.671,819.866l811.67,819.863l-622.158,611.321l-811.671,-819.863l622.158,-611.321Zm811.671,819.863l811.671,819.862l-622.158,611.321l-811.671,-819.862l622.158,-611.321Zm811.671,819.862l811.671,819.863l-622.163,611.325l-811.666,-819.867l622.158,-611.321Zm811.671,819.863l811.671,819.867l-622.163,611.32l-811.671,-819.862l622.163,-611.325Zm1623.34,1639.73l811.671,819.863l-622.158,611.325l-811.671,-819.867l622.158,-611.321Zm4870.04,4919.17l811.671,819.866l-622.162,611.321l-811.671,-819.862l622.162,-611.325Zm-16855.6,-15786l811.671,819.863l-622.163,611.321l-811.667,-819.863l622.159,-611.321Zm811.671,819.863l811.67,819.862l-622.162,611.321l-811.671,-819.862l622.163,-611.321Zm811.67,819.862l811.667,819.863l-622.158,611.325l-811.671,-819.867l622.162,-611.321Zm811.667,819.863l811.671,819.867l-622.158,611.32l-811.671,-819.862l622.158,-611.325Zm811.671,819.867l811.671,819.862l-622.159,611.321l-811.67,-819.863l622.158,-611.32Zm811.671,819.862l811.671,819.863l-622.159,611.325l-811.671,-819.867l622.159,-611.321Zm811.671,819.863l811.67,819.862l-622.158,611.325l-811.671,-819.862l622.159,-611.325Zm1623.34,1639.73l811.671,819.862l-622.162,611.321l-811.667,-819.862l622.158,-611.321Zm1623.34,1639.73l811.671,819.862l-622.163,611.325l-811.671,-819.862l622.163,-611.325Zm1623.34,1639.73l811.671,819.862l-622.158,611.321l-811.671,-819.862l622.158,-611.321Zm1623.34,1639.73l811.671,819.867l-622.158,611.32l-811.671,-819.862l622.158,-611.325Zm811.671,819.867l811.671,819.862l-622.159,611.321l-811.67,-819.863l622.158,-611.32Zm811.671,819.862l811.671,819.863l-622.159,611.32l-811.671,-819.862l622.159,-611.321Zm811.671,819.863l811.67,819.862l-622.162,611.325l-811.667,-819.867l622.159,-611.32Zm811.67,819.862l811.671,819.867l-622.162,611.321l-811.671,-819.863l622.162,-611.325Zm811.671,819.867l811.667,819.862l-622.158,611.321l-811.671,-819.862l622.162,-611.321Zm811.667,819.862l811.671,819.863l-622.159,611.321l-811.67,-819.863l622.158,-611.321Zm-8738.88,-7587.29l811.671,819.862l-622.159,611.321l-811.67,-819.863l622.158,-611.32Zm811.671,819.862l811.671,819.863l-622.159,611.32l-811.671,-819.862l622.159,-611.321Zm811.671,819.863l811.67,819.862l-622.158,611.325l-811.671,-819.867l622.159,-611.32Zm-10362.2,-9227.04l811.671,819.867l-622.158,611.32l-811.671,-819.862l622.158,-611.325Zm811.671,819.867l811.671,819.862l-622.158,611.321l-811.671,-819.863l622.158,-611.32Zm811.671,819.862l811.671,819.863l-622.159,611.32l-811.67,-819.862l622.158,-611.321Zm811.671,819.863l811.671,819.862l-622.159,611.325l-811.671,-819.867l622.159,-611.32Zm811.671,819.862l811.67,819.867l-622.162,611.321l-811.667,-819.863l622.159,-611.325Zm1623.34,1639.73l811.667,819.863l-622.158,611.321l-811.671,-819.863l622.162,-611.321Zm811.667,819.863l811.671,819.862l-622.159,611.325l-811.67,-819.866l622.158,-611.321Zm811.671,819.862l811.671,819.867l-622.159,611.321l-811.671,-819.863l622.159,-611.325Zm811.671,819.867l811.67,819.862l-622.158,611.321l-811.671,-819.862l622.159,-611.321Zm2435.01,2459.59l811.671,819.867l-622.163,611.321l-811.666,-819.863l622.158,-611.325Zm811.671,819.867l811.671,819.863l-622.163,611.32l-811.671,-819.862l622.163,-611.321Zm1623.34,1639.73l811.671,819.863l-622.158,611.325l-811.671,-819.863l622.158,-611.325Zm1623.34,1639.73l811.671,819.863l-622.158,611.321l-811.671,-819.863l622.158,-611.321Zm1623.34,1639.73l811.671,819.867l-622.159,611.321l-811.671,-819.863l622.159,-611.325Zm-10362.2,-9227.04l811.671,819.866l-622.158,611.321l-811.671,-819.862l622.158,-611.325Zm811.671,819.866l811.671,819.863l-622.158,611.321l-811.671,-819.863l622.158,-611.321Zm811.671,819.863l811.671,819.862l-622.158,611.325l-811.671,-819.866l622.158,-611.321Zm811.671,819.862l811.671,819.867l-622.163,611.321l-811.666,-819.863l622.158,-611.325Zm4058.35,4099.32l811.671,819.863l-622.159,611.32l-811.67,-819.862l622.158,-611.321Zm811.671,819.863l811.671,819.862l-622.159,611.321l-811.671,-819.862l622.159,-611.321Zm1623.34,1639.73l811.671,819.866l-622.162,611.321l-811.667,-819.862l622.158,-611.325Zm811.671,819.866l811.671,819.863l-622.162,611.321l-811.671,-819.863l622.162,-611.321Zm811.671,819.863l811.671,819.862l-622.163,611.321l-811.67,-819.862l622.162,-611.321Zm-16855.6,-15786l811.671,819.863l-622.163,611.325l-811.671,-819.867l622.163,-611.321Zm1623.34,1639.73l811.671,819.862l-622.158,611.321l-811.671,-819.863l622.158,-611.32Zm1623.34,1639.73l811.671,819.862l-622.159,611.325l-811.67,-819.867l622.158,-611.32Zm811.671,819.862l811.671,819.867l-622.159,611.321l-811.671,-819.863l622.159,-611.325Zm811.671,819.867l811.67,819.862l-622.158,611.321l-811.671,-819.862l622.159,-611.321Zm811.67,819.862l811.671,819.863l-622.162,611.321l-811.667,-819.863l622.158,-611.321Zm811.671,819.863l811.671,819.862l-622.162,611.325l-811.671,-819.866l622.162,-611.321Zm811.671,819.862l811.671,819.867l-622.163,611.321l-811.67,-819.863l622.162,-611.325Zm1623.34,1639.73l811.67,819.862l-622.158,611.321l-811.671,-819.863l622.159,-611.32Zm811.67,819.862l811.671,819.862l-622.158,611.325l-811.671,-819.866l622.158,-611.321Zm2435.01,2459.59l811.671,819.862l-622.159,611.321l-811.67,-819.862l622.158,-611.321Zm3246.68,3279.45l811.671,819.862l-622.158,611.325l-811.671,-819.866l622.158,-611.321Zm-15232.2,-14146.2l811.671,819.863l-622.159,611.321l-811.671,-819.863l622.159,-611.321Zm3246.68,3279.45l811.671,819.862l-622.163,611.321l-811.666,-819.863l622.158,-611.32Zm3246.68,3279.45l811.671,819.862l-622.158,611.321l-811.671,-819.862l622.158,-611.321Zm811.671,819.862l811.671,819.863l-622.158,611.325l-811.671,-819.867l622.158,-611.321Zm1623.34,1639.73l811.671,819.867l-622.159,611.321l-811.671,-819.863l622.159,-611.325Zm811.671,819.867l811.67,819.862l-622.162,611.321l-811.667,-819.862l622.159,-611.321Zm2435.01,2459.59l811.667,819.867l-622.159,611.321l-811.67,-819.862l622.162,-611.326Zm1623.34,1639.73l811.67,819.862l-622.158,611.325l-811.671,-819.867l622.159,-611.32Zm811.67,819.862l811.671,819.867l-622.158,611.321l-811.671,-819.863l622.158,-611.325Zm-14420.5,-13326.4l811.671,819.863l-622.159,611.325l-811.671,-819.863l622.159,-611.325Zm811.671,819.863l811.67,819.866l-622.162,611.321l-811.667,-819.862l622.159,-611.325Zm2435.01,2459.59l811.671,819.863l-622.159,611.325l-811.67,-819.863l622.158,-611.325Zm811.671,819.863l811.671,819.866l-622.159,611.321l-811.671,-819.862l622.159,-611.325Zm2435.01,2459.59l811.671,819.867l-622.158,611.321l-811.671,-819.863l622.158,-611.325Zm1623.34,1639.73l811.671,819.862l-622.163,611.321l-811.671,-819.863l622.163,-611.32Zm1623.34,1639.73l811.671,819.866l-622.158,611.321l-811.671,-819.862l622.158,-611.325Zm1623.34,1639.73l811.671,819.862l-622.158,611.321l-811.671,-819.862l622.158,-611.321Zm-7115.54,-5947.58l811.671,819.863l-622.158,611.325l-811.671,-819.867l622.158,-611.321Zm2435.01,2459.59l811.667,819.863l-622.159,611.32l-811.671,-819.862l622.163,-611.321Zm2435.01,2459.59l811.671,819.862l-622.158,611.321l-811.671,-819.862l622.158,-611.321Zm811.671,819.862l811.671,819.863l-622.158,611.325l-811.671,-819.867l622.158,-611.321Zm811.671,819.863l811.671,819.862l-622.159,611.325l-811.67,-819.862l622.158,-611.325Zm811.671,819.862l811.671,819.867l-622.163,611.321l-811.667,-819.863l622.159,-611.325Zm1623.34,1639.73l811.667,819.862l-622.158,611.325l-811.671,-819.867l622.162,-611.321Zm811.667,819.863l811.671,819.862l-622.158,611.325l-811.671,-819.862l622.158,-611.325Zm-16855.6,-15786l811.666,819.866l-622.158,611.321l-811.671,-819.862l622.163,-611.325Zm811.666,819.866l811.671,819.863l-622.158,611.321l-811.671,-819.863l622.158,-611.321Zm811.671,819.863l811.671,819.862l-622.158,611.321l-811.671,-819.862l622.158,-611.321Zm811.671,819.862l811.671,819.863l-622.158,611.325l-811.671,-819.867l622.158,-611.321Zm811.671,819.863l811.671,819.866l-622.159,611.321l-811.67,-819.862l622.158,-611.325Zm811.671,819.866l811.671,819.863l-622.159,611.321l-811.671,-819.863l622.159,-611.321Zm811.671,819.863l811.67,819.862l-622.162,611.325l-811.667,-819.866l622.159,-611.321Zm1623.34,1639.73l811.671,819.867l-622.162,611.32l-811.671,-819.862l622.162,-611.325Zm1623.34,1639.73l811.671,819.863l-622.159,611.325l-811.671,-819.867l622.159,-611.321Zm811.671,819.863l811.67,819.862l-622.158,611.325l-811.671,-819.862l622.159,-611.325Zm811.67,819.862l811.671,819.867l-622.158,611.321l-811.671,-819.863l622.158,-611.325Zm4058.36,4099.32l811.666,819.862l-622.158,611.321l-811.671,-819.862l622.163,-611.321Zm811.666,819.862l811.671,819.863l-622.158,611.325l-811.671,-819.867l622.158,-611.321Zm811.671,819.863l811.671,819.867l-622.158,611.32l-811.671,-819.862l622.158,-611.325Zm-16043.9,-14966.1l811.671,819.862l-622.158,611.321l-811.671,-819.863l622.158,-611.32Zm4870.04,4919.17l811.666,819.867l-622.158,611.321l-811.671,-819.863l622.163,-611.325Zm3246.68,3279.45l811.671,819.867l-622.159,611.321l-811.67,-819.863l622.158,-611.325Zm811.671,819.867l811.671,819.863l-622.159,611.32l-811.671,-819.862l622.159,-611.321Zm811.671,819.863l811.67,819.862l-622.162,611.321l-811.667,-819.863l622.159,-611.32Zm811.67,819.862l811.671,819.863l-622.162,611.325l-811.671,-819.867l622.162,-611.321Zm1623.34,1639.73l811.667,819.863l-622.159,611.321l-811.67,-819.863l622.162,-611.321Zm1623.34,1639.73l811.67,819.863l-622.158,611.325l-811.671,-819.867l622.159,-611.321Zm811.67,819.863l811.671,819.866l-622.158,611.321l-811.671,-819.862l622.158,-611.325Zm-15232.2,-14146.2l811.671,819.863l-622.158,611.325l-811.671,-819.867l622.158,-611.321Zm1623.34,1639.73l811.671,819.862l-622.163,611.321l-811.671,-819.863l622.163,-611.32Zm811.671,819.862l811.67,819.863l-622.162,611.32l-811.671,-819.862l622.163,-611.321Zm811.67,819.863l811.667,819.862l-622.158,611.325l-811.671,-819.867l622.162,-611.32Zm1623.34,1639.73l811.671,819.862l-622.159,611.321l-811.67,-819.862l622.158,-611.321Zm1623.34,1639.73l811.67,819.862l-622.158,611.325l-811.671,-819.866l622.159,-611.321Zm811.67,819.862l811.671,819.867l-622.158,611.321l-811.671,-819.863l622.158,-611.325Zm1623.34,1639.73l811.671,819.863l-622.163,611.321l-811.67,-819.863l622.162,-611.321Zm811.671,819.863l811.667,819.862l-622.159,611.325l-811.671,-819.866l622.163,-611.321Zm1623.34,1639.73l811.671,819.863l-622.158,611.32l-811.671,-819.862l622.158,-611.321Zm2435.01,2459.59l811.671,819.866l-622.159,611.321l-811.67,-819.862l622.158,-611.325Zm-14420.5,-13326.4l811.671,819.866l-622.162,611.321l-811.671,-819.862l622.162,-611.325Zm1623.34,1639.73l811.671,819.862l-622.159,611.321l-811.671,-819.862l622.159,-611.321Zm811.671,819.862l811.67,819.863l-622.158,611.325l-811.671,-819.867l622.159,-611.321Zm811.67,819.863l811.671,819.866l-622.158,611.321l-811.671,-819.862l622.158,-611.325Zm1623.34,1639.73l811.671,819.862l-622.158,611.325l-811.671,-819.866l622.158,-611.321Zm1623.34,1639.73l811.671,819.867l-622.163,611.32l-811.667,-819.862l622.159,-611.325Zm811.671,819.867l811.67,819.862l-622.162,611.321l-811.671,-819.863l622.163,-611.32Zm3246.68,3279.45l811.671,819.862l-622.159,611.321l-811.671,-819.862l622.159,-611.321Zm811.671,819.862l811.67,819.863l-622.158,611.325l-811.671,-819.867l622.159,-611.321Zm1623.34,1639.73l811.671,819.863l-622.162,611.321l-811.667,-819.863l622.158,-611.321Zm2435.01,2459.59l811.67,819.867l-622.158,611.32l-811.671,-819.862l622.159,-611.325Zm-16043.9,-14966.1l811.67,819.862l-622.158,611.321l-811.671,-819.863l622.159,-611.32Zm1623.34,1639.73l811.671,819.862l-622.158,611.325l-811.671,-819.862l622.158,-611.325Zm811.671,819.862l811.671,819.867l-622.158,611.321l-811.671,-819.863l622.158,-611.325Zm811.671,819.867l811.671,819.862l-622.159,611.321l-811.67,-819.862l622.158,-611.321Zm1623.34,1639.73l811.67,819.866l-622.162,611.321l-811.671,-819.862l622.163,-611.325Zm1623.34,1639.73l811.667,819.862l-622.158,611.321l-811.671,-819.862l622.162,-611.321Zm811.667,819.862l811.671,819.863l-622.159,611.325l-811.67,-819.867l622.158,-611.321Zm1623.34,1639.73l811.67,819.862l-622.158,611.321l-811.671,-819.863l622.159,-611.32Zm811.67,819.862l811.671,819.863l-622.158,611.32l-811.671,-819.862l622.158,-611.321Zm811.671,819.863l811.671,819.862l-622.158,611.325l-811.671,-819.867l622.158,-611.32Zm811.671,819.862l811.671,819.867l-622.163,611.321l-811.666,-819.863l622.158,-611.325Zm2435.01,2459.59l811.671,819.862l-622.158,611.325l-811.671,-819.866l622.158,-611.321Zm811.671,819.862l811.671,819.867l-622.158,611.321l-811.671,-819.863l622.158,-611.325Zm-15232.2,-14146.2l811.671,819.862l-622.159,611.325l-811.67,-819.866l622.158,-611.321Zm4870.04,4919.17l811.67,819.862l-622.158,611.321l-811.671,-819.863l622.159,-611.32Zm1623.34,1639.73l811.671,819.862l-622.158,611.325l-811.671,-819.867l622.158,-611.32Zm1623.34,1639.73l811.671,819.862l-622.159,611.321l-811.67,-819.862l622.158,-611.321Zm811.671,819.862l811.671,819.863l-622.163,611.325l-811.667,-819.867l622.159,-611.321Zm811.671,819.863l811.67,819.862l-622.162,611.325l-811.671,-819.862l622.163,-611.325Zm811.67,819.862l811.671,819.867l-622.162,611.321l-811.671,-819.863l622.162,-611.325Zm1623.34,1639.73l811.671,819.862l-622.159,611.325l-811.67,-819.867l622.158,-611.321Zm1623.34,1639.73l811.67,819.867l-622.158,611.321l-811.671,-819.863l622.159,-611.324Zm811.67,819.866l811.671,819.863l-622.158,611.32l-811.671,-819.862l622.158,-611.321Zm-15232.2,-14146.2l811.671,819.867l-622.163,611.32l-811.666,-819.862l622.158,-611.325Zm811.671,819.867l811.671,819.862l-622.163,611.321l-811.671,-819.863l622.163,-611.32Zm811.671,819.862l811.671,819.863l-622.163,611.325l-811.671,-819.867l622.163,-611.321Zm811.671,819.863l811.666,819.862l-622.158,611.325l-811.671,-819.862l622.163,-611.325Zm811.666,819.862l811.671,819.867l-622.158,611.321l-811.671,-819.863l622.158,-611.325Zm811.671,819.867l811.671,819.862l-622.158,611.321l-811.671,-819.862l622.158,-611.321Zm811.671,819.862l811.671,819.863l-622.159,611.325l-811.67,-819.867l622.158,-611.321Zm1623.34,1639.73l811.67,819.867l-622.158,611.321l-811.671,-819.863l622.159,-611.325Zm811.67,819.867l811.671,819.862l-622.162,611.321l-811.667,-819.862l622.158,-611.321Zm811.671,819.862l811.671,819.863l-622.162,611.325l-811.671,-819.867l622.162,-611.321Zm811.671,819.863l811.667,819.867l-622.159,611.32l-811.67,-819.862l622.162,-611.325Zm2435.01,2459.59l811.671,819.862l-622.158,611.325l-811.671,-819.867l622.158,-611.32Zm811.671,819.862l811.671,819.867l-622.158,611.32l-811.671,-819.862l622.158,-611.325Zm1623.34,1639.73l811.671,819.863l-622.163,611.32l-811.666,-819.862l622.158,-611.321Zm1623.34,1639.73l811.67,819.867l-622.162,611.321l-811.671,-819.863l622.163,-611.325Z" style="fill:#fe00ff;fill-rule:nonzero;"/><rect x="0" y="-0" width="9933.33" height="14045.8" style="fill-opacity:0.86;"/></g></svg>