<?xml version="1.0" encoding="UTF-8" standalone="no"?><!DOCTYPE svg PUBLIC "-//W3C//DTD SVG 1.1//EN" "http://www.w3.org/Graphics/SVG/1.1/DTD/svg11.dtd"><svg width="100%" height="100%" viewBox="0 0 9934 14046" version="1.1" xmlns="http://www.w3.org/2000/svg" xmlns:xlink="http://www.w3.org/1999/xlink" xml:space="preserve" xmlns:serif="http://www.serif.com/" style="fill-rule:evenodd;clip-rule:evenodd;stroke-linecap:round;stroke-linejoin:round;stroke-miterlimit:1.5;"><rect x="0" y="0" width="9933.33" height="14045.8"/><g><g><path d="M6387.87,24.721c0,803.195 833.604,2648.13 570.032,3345.91c-198.071,524.38 -683.535,753.409 -1095.22,1037.03c-749.476,516.329 -1324.08,1636.65 -1364.01,2579.76c-28.778,679.65 196.259,4498.57 321.09,4721.61c553.606,989.159 999.878,3172.1 980.164,3285.85c-0.217,1.251 -0,2.544 -0,3.816" style="fill:none;stroke:#fff814;stroke-opacity:0.1;stroke-width:116.67px;"/><path d="M6271.2,-100.709c-0,803.195 833.603,2648.13 570.032,3345.91c-198.071,524.38 -683.535,753.409 -1095.23,1037.03c-749.475,516.329 -1324.08,1636.65 -1364.01,2579.76c-28.778,679.65 196.26,4498.57 321.091,4721.61c553.606,989.159 999.877,3172.1 980.163,3285.85c-0.216,1.251 0,2.544 0,3.816" style="fill:none;stroke:#fff814;stroke-opacity:0.2;stroke-width:116.67px;"/><path d="M6154.54,-226.139c-0,803.195 833.604,2648.13 570.032,3345.91c-198.071,524.38 -683.535,753.409 -1095.22,1037.03c-749.476,516.329 -1324.08,1636.65 -1364.02,2579.76c-28.778,679.65 196.26,4498.57 321.091,4721.61c553.606,989.159 999.877,3172.1 980.164,3285.85c-0.217,1.251 -0,2.544 -0,3.816" style="fill:none;stroke:#fff814;stroke-opacity:0.3;stroke-width:116.67px;"/><path d="M6037.87,-351.569c0,803.195 833.604,2648.13 570.032,3345.91c-198.071,524.38 -683.535,753.409 -1095.22,1037.03c-749.476,516.329 -1324.08,1636.65 -1364.01,2579.76c-28.778,679.65 196.259,4498.57 321.09,4721.61c553.606,989.159 999.878,3172.1 980.164,3285.85c-0.217,1.251 -0,2.544 -0,3.816" style="fill:none;stroke:#fff814;stroke-opacity:0.4;stroke-width:116.67px;"/><path d="M5921.2,-476.999c-0,803.195 833.603,2648.13 570.032,3345.91c-198.071,524.38 -683.535,753.409 -1095.23,1037.03c-749.475,516.329 -1324.08,1636.65 -1364.01,2579.76c-28.778,679.65 196.26,4498.57 321.091,4721.61c553.606,989.159 999.877,3172.1 980.163,3285.85c-0.216,1.251 0,2.544 0,3.816" style="fill:none;stroke:#fff814;stroke-opacity:0.5;stroke-width:116.67px;"/><path d="M5804.54,-602.429c-0,803.195 833.604,2648.13 570.032,3345.91c-198.071,524.38 -683.535,753.409 -1095.22,1037.03c-749.476,516.329 -1324.08,1636.65 -1364.02,2579.76c-28.778,679.65 196.26,4498.57 321.091,4721.61c553.606,989.159 999.877,3172.1 980.164,3285.85c-0.217,1.251 -0,2.544 -0,3.816" style="fill:none;stroke:#fff814;stroke-opacity:0.6;stroke-width:116.67px;"/><path d="M5687.87,-727.859c0,803.195 833.604,2648.13 570.032,3345.91c-198.071,524.38 -683.535,753.409 -1095.22,1037.03c-749.476,516.329 -1324.08,1636.65 -1364.01,2579.76c-28.778,679.65 196.259,4498.57 321.09,4721.61c553.606,989.159 999.878,3172.1 980.164,3285.85c-0.217,1.251 -0,2.544 -0,3.816" style="fill:none;stroke:#fff814;stroke-opacity:0.7;stroke-width:116.67px;"/><path d="M5571.2,-853.289c-0,803.195 833.603,2648.13 570.032,3345.91c-198.071,524.38 -683.535,753.409 -1095.23,1037.03c-749.475,516.329 -1324.08,1636.65 -1364.01,2579.76c-28.778,679.65 196.26,4498.57 321.091,4721.61c553.606,989.159 999.877,3172.1 980.163,3285.85c-0.216,1.251 0,2.544 0,3.816" style="fill:none;stroke:#fff814;stroke-opacity:0.8;stroke-width:116.67px;"/><path d="M5454.54,-978.719c-0,803.195 833.604,2648.13 570.032,3345.91c-198.071,524.38 -683.535,753.409 -1095.22,1037.03c-749.476,516.329 -1324.08,1636.65 -1364.02,2579.76c-28.778,679.65 196.26,4498.57 321.091,4721.61c553.606,989.159 999.877,3172.1 980.164,3285.85c-0.217,1.251 -0,2.544 -0,3.816" style="fill:none;stroke:#fff814;stroke-opacity:0.9;stroke-width:116.67px;"/><path d="M5337.87,-1104.15c0,803.195 833.604,2648.13 570.032,3345.91c-198.071,524.38 -683.535,753.409 -1095.22,1037.03c-749.476,516.329 -1324.08,1636.65 -1364.01,2579.76c-28.778,679.65 196.259,4498.57 321.09,4721.61c553.606,989.159 999.878,3172.1 980.164,3285.85c-0.217,1.251 -0,2.544 -0,3.816" style="fill:none;stroke:#fff814;stroke-width:116.67px;"/></g><g><path d="M7124.07,15203.4c6.176,31.604 34.049,55.482 67.455,55.482c5.806,-0 80.102,-11.189 67.664,-81.026c-0.292,-1.643 -2.356,-10.646 -6.196,-25.675c-21.878,-85.636 -108.848,-413.051 -181.404,-629.884c-34.451,-102.957 -68.247,-182.449 -89.916,-209.664c-77.348,-97.147 -345.037,-281.053 -690.853,-492.008c-784.621,-478.633 -1974.97,-1111.58 -2148.21,-1212.92c-111.355,-65.139 -676.224,-481.342 -1012.87,-774.671c-84.569,-73.687 -154.518,-139.313 -198.24,-189.303c-16.023,-18.319 -32.537,-43.519 -35.267,-47.739c-84.739,-562.036 202.847,-929.19 564.789,-1240.83c384.97,-331.469 852.165,-603.422 1095.09,-957.428c160.265,-233.551 237.371,-644.125 262.645,-1097.04c36.922,-661.654 -31.972,-1414.28 -81.088,-1809.73c-26.406,-212.608 -162.53,-752.182 -318.039,-1127.03c-70.398,-169.69 -146.681,-306.17 -216.922,-371.105c-154.247,-142.593 -1092.17,-616.416 -1694.5,-974.247c-151.083,-89.756 -280.538,-172.015 -369.627,-239.633c-51.178,-38.844 -88.26,-70.618 -103.829,-96.282c-101.535,-167.373 -170.076,-507.741 -220.007,-915.795c-119.694,-978.207 -120.265,-2338.63 -120.265,-2723.62c-0,-37.944 -30.806,-68.75 -68.75,-68.75c-37.944,0 -68.75,30.806 -68.75,68.75c-0,387.354 0.854,1756.11 121.283,2740.32c52.981,432.984 131.191,792.812 238.93,970.412c16.527,27.244 48.211,61.351 94.035,99.464c91.139,75.802 243.503,174.482 426.752,283.347c593.507,352.59 1519.4,816.496 1671.38,957c60.66,56.077 122.462,176.286 183.256,322.828c150.601,363.013 283.02,885.388 308.593,1091.29c48.448,390.078 116.673,1132.46 80.253,1785.13c-23.622,423.301 -88.947,808.619 -238.733,1026.9c-237.047,345.445 -695.77,607.577 -1071.43,931.029c-397.965,342.657 -705.287,750.397 -610.485,1369.23c2.406,15.706 10.026,36.486 25.495,60.301c22.045,33.938 64.035,80.892 120.905,135.817c300.521,290.248 1035.98,834.041 1165.96,910.077c173.062,101.234 1362.22,733.473 2146.03,1211.62c326.372,199.093 581.891,368.585 654.89,460.269c17.152,21.543 39.821,86.156 67.091,167.651c71.449,213.523 157.033,535.958 178.577,620.287l4.298,17.184Zm0.16,-27.363c6.504,-31.193 34.182,-54.655 67.295,-54.655c-16.819,-0 -32.335,5.374 -45.959,17.621c-7.007,6.299 -17.344,17.187 -21.336,37.034Z" style="fill:#ff63c8;"/><path d="M7240.74,15079.3c6.177,31.603 34.05,55.481 67.456,55.481c5.806,0 80.101,-11.189 67.664,-81.026c-0.293,-1.643 -2.357,-10.646 -6.196,-25.675c-21.878,-85.636 -108.848,-413.051 -181.404,-629.884c-34.452,-102.956 -68.248,-182.448 -89.917,-209.664c-77.347,-97.147 -345.036,-281.053 -690.853,-492.007c-784.62,-478.634 -1974.97,-1111.58 -2148.21,-1212.92c-111.355,-65.138 -676.224,-481.342 -1012.87,-774.671c-84.569,-73.687 -154.518,-139.313 -198.24,-189.302c-16.023,-18.32 -32.538,-43.52 -35.267,-47.74c-84.739,-562.036 202.847,-929.189 564.789,-1240.83c384.97,-331.468 852.164,-603.422 1095.09,-957.428c160.265,-233.551 237.371,-644.124 262.645,-1097.04c36.922,-661.654 -31.972,-1414.28 -81.088,-1809.73c-26.406,-212.608 -162.531,-752.182 -318.04,-1127.03c-70.397,-169.69 -146.68,-306.17 -216.922,-371.105c-154.246,-142.593 -1092.17,-616.415 -1694.5,-974.247c-151.084,-89.756 -280.538,-172.015 -369.627,-239.633c-51.178,-38.844 -88.261,-70.618 -103.829,-96.281c-101.535,-167.374 -170.077,-507.742 -220.007,-915.796c-119.695,-978.207 -120.266,-2338.63 -120.266,-2723.62c0,-37.944 -30.806,-68.75 -68.75,-68.75c-37.944,0 -68.75,30.806 -68.75,68.75c0,387.354 0.855,1756.11 121.284,2740.32c52.981,432.984 131.191,792.812 238.929,970.412c16.528,27.244 48.211,61.351 94.036,99.464c91.138,75.802 243.503,174.482 426.752,283.347c593.506,352.59 1519.4,816.496 1671.38,957c60.66,56.077 122.462,176.286 183.256,322.828c150.6,363.013 283.02,885.388 308.592,1091.29c48.449,390.078 116.673,1132.46 80.253,1785.13c-23.621,423.301 -88.946,808.62 -238.732,1026.9c-237.047,345.445 -695.77,607.578 -1071.43,931.029c-397.965,342.657 -705.286,750.397 -610.485,1369.23c2.406,15.706 10.027,36.486 25.496,60.301c22.044,33.939 64.034,80.892 120.904,135.818c300.522,290.247 1035.98,834.04 1165.96,910.076c173.061,101.235 1362.22,733.474 2146.03,1211.62c326.372,199.093 581.892,368.585 654.89,460.27c17.152,21.542 39.822,86.155 67.092,167.65c71.449,213.523 157.032,535.958 178.576,620.287l4.298,17.185Zm0.161,-27.363c6.504,-31.194 34.181,-54.656 67.295,-54.656c-16.819,0 -32.336,5.374 -45.959,17.621c-7.008,6.299 -17.344,17.187 -21.336,37.035Z" style="fill:#ff63c8;fill-opacity:0.9;"/><path d="M7357.4,14955.2c6.177,31.603 34.05,55.481 67.456,55.481c5.806,0 80.101,-11.189 67.664,-81.026c-0.293,-1.643 -2.357,-10.645 -6.197,-25.674c-21.878,-85.637 -108.847,-413.052 -181.404,-629.885c-34.451,-102.956 -68.247,-182.448 -89.916,-209.664c-77.347,-97.147 -345.037,-281.052 -690.853,-492.007c-784.62,-478.634 -1974.97,-1111.58 -2148.21,-1212.92c-111.355,-65.138 -676.225,-481.342 -1012.87,-774.67c-84.569,-73.688 -154.519,-139.314 -198.24,-189.303c-16.023,-18.32 -32.538,-43.52 -35.268,-47.74c-84.738,-562.036 202.848,-929.189 564.79,-1240.83c384.97,-331.468 852.164,-603.422 1095.09,-957.428c160.265,-233.551 237.372,-644.124 262.645,-1097.04c36.922,-661.654 -31.971,-1414.28 -81.087,-1809.73c-26.407,-212.608 -162.531,-752.182 -318.04,-1127.03c-70.398,-169.69 -146.68,-306.17 -216.922,-371.105c-154.246,-142.593 -1092.17,-616.415 -1694.5,-974.247c-151.083,-89.756 -280.538,-172.015 -369.627,-239.633c-51.177,-38.844 -88.26,-70.618 -103.828,-96.281c-101.536,-167.374 -170.077,-507.742 -220.007,-915.796c-119.695,-978.206 -120.266,-2338.63 -120.266,-2723.62c0,-37.945 -30.806,-68.75 -68.75,-68.75c-37.944,-0 -68.75,30.805 -68.75,68.75c0,387.353 0.854,1756.11 121.284,2740.32c52.98,432.984 131.19,792.813 238.929,970.412c16.527,27.244 48.211,61.352 94.035,99.464c91.139,75.802 243.503,174.482 426.752,283.347c593.507,352.591 1519.4,816.496 1671.39,957c60.659,56.077 122.461,176.287 183.256,322.828c150.6,363.013 283.019,885.388 308.592,1091.29c48.448,390.077 116.673,1132.46 80.253,1785.12c-23.621,423.301 -88.946,808.62 -238.733,1026.9c-237.047,345.444 -695.77,607.577 -1071.43,931.028c-397.965,342.658 -705.287,750.398 -610.485,1369.23c2.406,15.707 10.026,36.487 25.495,60.302c22.045,33.938 64.035,80.891 120.905,135.817c300.522,290.248 1035.98,834.04 1165.96,910.077c173.062,101.234 1362.22,733.473 2146.03,1211.61c326.372,199.093 581.892,368.585 654.89,460.27c17.152,21.542 39.822,86.156 67.092,167.651c71.449,213.523 157.032,535.957 178.576,620.286l4.298,17.185Zm0.16,-27.363c6.505,-31.194 34.182,-54.656 67.296,-54.656c-16.819,0 -32.336,5.374 -45.96,17.621c-7.007,6.299 -17.343,17.187 -21.336,37.035Z" style="fill:#ff63c8;fill-opacity:0.8;"/><path d="M7474.07,14831c6.176,31.604 34.049,55.481 67.455,55.481c5.806,0 80.102,-11.189 67.664,-81.026c-0.292,-1.643 -2.356,-10.645 -6.196,-25.674c-21.878,-85.636 -108.848,-413.052 -181.404,-629.884c-34.451,-102.957 -68.247,-182.449 -89.916,-209.665c-77.348,-97.147 -345.037,-281.052 -690.853,-492.007c-784.621,-478.634 -1974.97,-1111.58 -2148.21,-1212.92c-111.355,-65.138 -676.224,-481.342 -1012.87,-774.67c-84.569,-73.688 -154.518,-139.314 -198.24,-189.303c-16.023,-18.32 -32.537,-43.519 -35.267,-47.74c-84.739,-562.036 202.847,-929.189 564.789,-1240.83c384.97,-331.468 852.165,-603.422 1095.09,-957.428c160.265,-233.551 237.371,-644.124 262.645,-1097.04c36.922,-661.654 -31.972,-1414.28 -81.088,-1809.73c-26.406,-212.608 -162.53,-752.182 -318.039,-1127.03c-70.398,-169.69 -146.681,-306.17 -216.922,-371.105c-154.247,-142.593 -1092.17,-616.415 -1694.5,-974.247c-151.083,-89.755 -280.538,-172.014 -369.627,-239.633c-51.178,-38.844 -88.26,-70.618 -103.829,-96.281c-101.535,-167.374 -170.076,-507.741 -220.007,-915.796c-119.694,-978.206 -120.265,-2338.63 -120.265,-2723.62c-0,-37.944 -30.806,-68.75 -68.75,-68.75c-37.944,-0 -68.75,30.806 -68.75,68.75c-0,387.354 0.854,1756.11 121.283,2740.32c52.981,432.984 131.191,792.813 238.93,970.412c16.527,27.244 48.211,61.352 94.035,99.464c91.139,75.802 243.503,174.483 426.752,283.347c593.507,352.591 1519.4,816.496 1671.38,957.001c60.66,56.076 122.462,176.286 183.256,322.827c150.601,363.013 283.02,885.389 308.593,1091.29c48.448,390.077 116.673,1132.46 80.253,1785.12c-23.622,423.301 -88.947,808.62 -238.733,1026.9c-237.047,345.444 -695.77,607.577 -1071.43,931.029c-397.965,342.657 -705.287,750.397 -610.485,1369.23c2.406,15.707 10.026,36.487 25.495,60.302c22.045,33.938 64.035,80.891 120.905,135.817c300.521,290.248 1035.98,834.04 1165.96,910.077c173.062,101.234 1362.22,733.473 2146.03,1211.61c326.372,199.094 581.891,368.585 654.89,460.27c17.152,21.542 39.821,86.156 67.091,167.651c71.449,213.523 157.033,535.957 178.577,620.286l4.298,17.185Zm0.16,-27.363c6.504,-31.194 34.182,-54.656 67.295,-54.656c-16.819,0 -32.335,5.374 -45.959,17.621c-7.007,6.299 -17.344,17.187 -21.336,37.035Z" style="fill:#ff63c8;fill-opacity:0.7;"/><path d="M7590.74,14706.9c6.177,31.604 34.05,55.482 67.456,55.482c5.806,-0 80.101,-11.19 67.664,-81.027c-0.293,-1.643 -2.357,-10.645 -6.196,-25.674c-21.878,-85.636 -108.848,-413.052 -181.404,-629.884c-34.452,-102.957 -68.248,-182.449 -89.917,-209.665c-77.347,-97.147 -345.036,-281.052 -690.853,-492.007c-784.62,-478.634 -1974.97,-1111.58 -2148.21,-1212.92c-111.355,-65.138 -676.224,-481.342 -1012.87,-774.67c-84.569,-73.688 -154.518,-139.314 -198.24,-189.303c-16.023,-18.32 -32.538,-43.519 -35.267,-47.74c-84.739,-562.035 202.847,-929.189 564.789,-1240.83c384.97,-331.468 852.164,-603.422 1095.09,-957.428c160.265,-233.551 237.371,-644.124 262.645,-1097.04c36.922,-661.654 -31.972,-1414.28 -81.088,-1809.73c-26.406,-212.608 -162.531,-752.182 -318.04,-1127.03c-70.397,-169.69 -146.68,-306.17 -216.922,-371.105c-154.246,-142.592 -1092.17,-616.415 -1694.5,-974.247c-151.084,-89.755 -280.538,-172.014 -369.627,-239.633c-51.178,-38.844 -88.261,-70.617 -103.829,-96.281c-101.535,-167.374 -170.077,-507.741 -220.007,-915.796c-119.695,-978.206 -120.266,-2338.63 -120.266,-2723.62c0,-37.944 -30.806,-68.75 -68.75,-68.75c-37.944,-0 -68.75,30.806 -68.75,68.75c0,387.354 0.855,1756.11 121.284,2740.32c52.981,432.984 131.191,792.813 238.929,970.412c16.528,27.244 48.211,61.352 94.036,99.465c91.138,75.801 243.503,174.482 426.752,283.346c593.506,352.591 1519.4,816.497 1671.38,957.001c60.66,56.077 122.462,176.286 183.256,322.827c150.6,363.014 283.02,885.389 308.592,1091.29c48.449,390.077 116.673,1132.46 80.253,1785.12c-23.621,423.301 -88.946,808.62 -238.732,1026.9c-237.047,345.444 -695.77,607.577 -1071.43,931.029c-397.965,342.657 -705.286,750.397 -610.485,1369.23c2.406,15.707 10.027,36.487 25.496,60.302c22.044,33.938 64.034,80.891 120.904,135.817c300.522,290.248 1035.98,834.04 1165.96,910.077c173.061,101.234 1362.22,733.473 2146.03,1211.61c326.372,199.094 581.892,368.585 654.89,460.27c17.152,21.542 39.822,86.156 67.092,167.651c71.449,213.523 157.032,535.958 178.576,620.287l4.298,17.184Zm0.161,-27.363c6.504,-31.194 34.181,-54.655 67.295,-54.655c-16.819,-0 -32.336,5.373 -45.959,17.62c-7.008,6.3 -17.344,17.187 -21.336,37.035Z" style="fill:#ff63c8;fill-opacity:0.6;"/><path d="M7707.4,14582.8c6.177,31.604 34.05,55.482 67.456,55.482c5.806,-0 80.101,-11.189 67.664,-81.026c-0.293,-1.644 -2.357,-10.646 -6.197,-25.675c-21.878,-85.636 -108.847,-413.051 -181.404,-629.884c-34.451,-102.957 -68.247,-182.449 -89.916,-209.664c-77.347,-97.147 -345.037,-281.053 -690.853,-492.008c-784.62,-478.633 -1974.97,-1111.58 -2148.21,-1212.92c-111.355,-65.139 -676.225,-481.343 -1012.87,-774.671c-84.569,-73.688 -154.519,-139.313 -198.24,-189.303c-16.023,-18.319 -32.538,-43.519 -35.268,-47.74c-84.738,-562.035 202.848,-929.189 564.79,-1240.83c384.97,-331.469 852.164,-603.423 1095.09,-957.429c160.265,-233.551 237.372,-644.124 262.645,-1097.04c36.922,-661.653 -31.971,-1414.28 -81.087,-1809.73c-26.407,-212.609 -162.531,-752.182 -318.04,-1127.03c-70.398,-169.689 -146.68,-306.169 -216.922,-371.105c-154.246,-142.592 -1092.17,-616.415 -1694.5,-974.246c-151.083,-89.756 -280.538,-172.015 -369.627,-239.634c-51.177,-38.844 -88.26,-70.617 -103.828,-96.281c-101.536,-167.374 -170.077,-507.741 -220.007,-915.796c-119.695,-978.206 -120.266,-2338.63 -120.266,-2723.62c0,-37.944 -30.806,-68.75 -68.75,-68.75c-37.944,0 -68.75,30.806 -68.75,68.75c0,387.354 0.854,1756.11 121.284,2740.32c52.98,432.984 131.19,792.812 238.929,970.411c16.527,27.244 48.211,61.352 94.035,99.465c91.139,75.802 243.503,174.482 426.752,283.346c593.507,352.591 1519.4,816.497 1671.39,957.001c60.659,56.077 122.461,176.286 183.256,322.828c150.6,363.013 283.019,885.388 308.592,1091.29c48.448,390.077 116.673,1132.46 80.253,1785.12c-23.621,423.301 -88.946,808.62 -238.733,1026.9c-237.047,345.444 -695.77,607.577 -1071.43,931.029c-397.965,342.657 -705.287,750.397 -610.485,1369.23c2.406,15.706 10.026,36.486 25.495,60.301c22.045,33.938 64.035,80.891 120.905,135.817c300.522,290.248 1035.98,834.041 1165.96,910.077c173.062,101.234 1362.22,733.473 2146.03,1211.61c326.372,199.094 581.892,368.585 654.89,460.27c17.152,21.543 39.822,86.156 67.092,167.651c71.449,213.523 157.032,535.958 178.576,620.287l4.298,17.184Zm0.16,-27.363c6.505,-31.193 34.182,-54.655 67.296,-54.655c-16.819,-0 -32.336,5.374 -45.96,17.62c-7.007,6.3 -17.343,17.188 -21.336,37.035Z" style="fill:#ff63c8;fill-opacity:0.5;"/><path d="M7824.07,14458.6c6.176,31.604 34.049,55.482 67.455,55.482c5.806,-0 80.102,-11.189 67.664,-81.026c-0.292,-1.643 -2.356,-10.646 -6.196,-25.675c-21.878,-85.636 -108.848,-413.051 -181.404,-629.884c-34.451,-102.957 -68.247,-182.449 -89.916,-209.664c-77.348,-97.147 -345.037,-281.053 -690.853,-492.008c-784.621,-478.633 -1974.97,-1111.58 -2148.21,-1212.92c-111.355,-65.139 -676.224,-481.342 -1012.87,-774.671c-84.569,-73.687 -154.518,-139.313 -198.24,-189.303c-16.023,-18.319 -32.537,-43.519 -35.267,-47.739c-84.739,-562.036 202.847,-929.19 564.789,-1240.83c384.97,-331.469 852.165,-603.422 1095.09,-957.428c160.265,-233.551 237.371,-644.125 262.645,-1097.04c36.922,-661.654 -31.972,-1414.28 -81.088,-1809.73c-26.406,-212.608 -162.53,-752.182 -318.039,-1127.03c-70.398,-169.69 -146.681,-306.17 -216.922,-371.105c-154.247,-142.593 -1092.17,-616.416 -1694.5,-974.247c-151.083,-89.756 -280.538,-172.015 -369.627,-239.633c-51.178,-38.844 -88.26,-70.618 -103.829,-96.282c-101.535,-167.373 -170.076,-507.741 -220.007,-915.795c-119.694,-978.207 -120.265,-2338.63 -120.265,-2723.62c-0,-37.944 -30.806,-68.75 -68.75,-68.75c-37.944,0 -68.75,30.806 -68.75,68.75c-0,387.354 0.854,1756.11 121.283,2740.32c52.981,432.984 131.191,792.812 238.93,970.412c16.527,27.244 48.211,61.351 94.035,99.464c91.139,75.802 243.503,174.482 426.752,283.347c593.507,352.59 1519.4,816.496 1671.38,957c60.66,56.077 122.462,176.286 183.256,322.828c150.601,363.013 283.02,885.388 308.593,1091.29c48.448,390.078 116.673,1132.46 80.253,1785.13c-23.622,423.301 -88.947,808.619 -238.733,1026.9c-237.047,345.445 -695.77,607.577 -1071.43,931.029c-397.965,342.657 -705.287,750.397 -610.485,1369.23c2.406,15.706 10.026,36.486 25.495,60.301c22.045,33.938 64.035,80.892 120.905,135.817c300.521,290.248 1035.98,834.041 1165.96,910.077c173.062,101.234 1362.22,733.473 2146.03,1211.62c326.372,199.093 581.891,368.585 654.89,460.269c17.152,21.543 39.821,86.156 67.091,167.651c71.449,213.523 157.033,535.958 178.577,620.287l4.298,17.184Zm0.16,-27.363c6.504,-31.193 34.182,-54.655 67.295,-54.655c-16.819,-0 -32.335,5.374 -45.959,17.621c-7.007,6.299 -17.344,17.187 -21.336,37.034Z" style="fill:#ff63c8;fill-opacity:0.4;"/><path d="M7940.74,14334.5c6.177,31.603 34.05,55.481 67.456,55.481c5.806,0 80.101,-11.189 67.664,-81.026c-0.293,-1.643 -2.357,-10.646 -6.196,-25.675c-21.878,-85.636 -108.848,-413.051 -181.404,-629.884c-34.452,-102.956 -68.248,-182.448 -89.917,-209.664c-77.347,-97.147 -345.036,-281.053 -690.853,-492.007c-784.62,-478.634 -1974.97,-1111.58 -2148.21,-1212.92c-111.355,-65.138 -676.224,-481.342 -1012.87,-774.671c-84.569,-73.687 -154.518,-139.313 -198.24,-189.302c-16.023,-18.32 -32.538,-43.52 -35.267,-47.74c-84.739,-562.036 202.847,-929.189 564.789,-1240.83c384.97,-331.468 852.164,-603.422 1095.09,-957.428c160.265,-233.551 237.371,-644.124 262.645,-1097.04c36.922,-661.654 -31.972,-1414.28 -81.088,-1809.73c-26.406,-212.608 -162.531,-752.182 -318.04,-1127.03c-70.397,-169.69 -146.68,-306.17 -216.922,-371.105c-154.246,-142.593 -1092.17,-616.415 -1694.5,-974.247c-151.084,-89.756 -280.538,-172.015 -369.627,-239.633c-51.178,-38.844 -88.261,-70.618 -103.829,-96.281c-101.535,-167.374 -170.077,-507.742 -220.007,-915.796c-119.695,-978.207 -120.266,-2338.63 -120.266,-2723.62c0,-37.944 -30.806,-68.75 -68.75,-68.75c-37.944,0 -68.75,30.806 -68.75,68.75c0,387.354 0.855,1756.11 121.284,2740.32c52.981,432.984 131.191,792.812 238.929,970.412c16.528,27.244 48.211,61.351 94.036,99.464c91.138,75.802 243.503,174.482 426.752,283.347c593.506,352.59 1519.4,816.496 1671.38,957c60.66,56.077 122.462,176.286 183.256,322.828c150.6,363.013 283.02,885.388 308.592,1091.29c48.449,390.078 116.673,1132.46 80.253,1785.13c-23.621,423.301 -88.946,808.62 -238.732,1026.9c-237.047,345.445 -695.77,607.578 -1071.43,931.029c-397.965,342.657 -705.286,750.397 -610.485,1369.23c2.406,15.706 10.027,36.486 25.496,60.301c22.044,33.939 64.034,80.892 120.904,135.818c300.522,290.247 1035.98,834.04 1165.96,910.076c173.061,101.235 1362.22,733.474 2146.03,1211.62c326.372,199.093 581.892,368.585 654.89,460.27c17.152,21.542 39.822,86.155 67.092,167.65c71.449,213.523 157.032,535.958 178.576,620.287l4.298,17.185Zm0.161,-27.363c6.504,-31.194 34.181,-54.656 67.295,-54.656c-16.819,0 -32.336,5.374 -45.959,17.621c-7.008,6.299 -17.344,17.187 -21.336,37.035Z" style="fill:#ff63c8;fill-opacity:0.3;"/><path d="M8057.4,14210.4c6.177,31.603 34.05,55.481 67.456,55.481c5.806,0 80.101,-11.189 67.664,-81.026c-0.293,-1.643 -2.357,-10.645 -6.197,-25.674c-21.878,-85.637 -108.847,-413.052 -181.404,-629.885c-34.451,-102.956 -68.247,-182.448 -89.916,-209.664c-77.347,-97.147 -345.037,-281.052 -690.853,-492.007c-784.62,-478.634 -1974.97,-1111.58 -2148.21,-1212.92c-111.355,-65.138 -676.225,-481.342 -1012.87,-774.67c-84.569,-73.688 -154.519,-139.314 -198.24,-189.303c-16.023,-18.32 -32.538,-43.519 -35.268,-47.74c-84.738,-562.036 202.848,-929.189 564.79,-1240.83c384.97,-331.468 852.164,-603.422 1095.09,-957.428c160.265,-233.551 237.372,-644.124 262.645,-1097.04c36.922,-661.654 -31.971,-1414.28 -81.087,-1809.73c-26.407,-212.608 -162.531,-752.182 -318.04,-1127.03c-70.398,-169.69 -146.68,-306.17 -216.922,-371.105c-154.246,-142.593 -1092.17,-616.415 -1694.5,-974.247c-151.083,-89.756 -280.538,-172.015 -369.627,-239.633c-51.177,-38.844 -88.26,-70.618 -103.828,-96.281c-101.536,-167.374 -170.077,-507.742 -220.007,-915.796c-119.695,-978.206 -120.266,-2338.63 -120.266,-2723.62c0,-37.945 -30.806,-68.75 -68.75,-68.75c-37.944,-0 -68.75,30.805 -68.75,68.75c0,387.353 0.854,1756.11 121.284,2740.32c52.98,432.984 131.19,792.813 238.929,970.412c16.527,27.244 48.211,61.352 94.035,99.464c91.139,75.802 243.503,174.482 426.752,283.347c593.507,352.591 1519.4,816.496 1671.39,957c60.659,56.077 122.461,176.287 183.256,322.828c150.6,363.013 283.019,885.388 308.592,1091.29c48.448,390.077 116.673,1132.46 80.253,1785.12c-23.621,423.301 -88.946,808.62 -238.733,1026.9c-237.047,345.444 -695.77,607.577 -1071.43,931.028c-397.965,342.658 -705.287,750.398 -610.485,1369.23c2.406,15.707 10.026,36.487 25.495,60.302c22.045,33.938 64.035,80.891 120.905,135.817c300.522,290.248 1035.98,834.04 1165.96,910.077c173.062,101.234 1362.22,733.473 2146.03,1211.61c326.372,199.093 581.892,368.585 654.89,460.27c17.152,21.542 39.822,86.156 67.092,167.651c71.449,213.523 157.032,535.957 178.576,620.286l4.298,17.185Zm0.16,-27.363c6.505,-31.194 34.182,-54.656 67.296,-54.656c-16.819,0 -32.336,5.374 -45.96,17.621c-7.007,6.299 -17.343,17.187 -21.336,37.035Z" style="fill:#ff63c8;fill-opacity:0.2;"/><path d="M8174.07,14086.3c6.176,31.604 34.049,55.481 67.455,55.481c5.806,0 80.102,-11.189 67.664,-81.026c-0.292,-1.643 -2.356,-10.645 -6.196,-25.674c-21.878,-85.636 -108.848,-413.052 -181.404,-629.884c-34.451,-102.957 -68.247,-182.449 -89.916,-209.665c-77.348,-97.147 -345.037,-281.052 -690.853,-492.007c-784.621,-478.634 -1974.97,-1111.58 -2148.21,-1212.92c-111.355,-65.138 -676.224,-481.342 -1012.87,-774.67c-84.569,-73.688 -154.518,-139.314 -198.24,-189.303c-16.023,-18.32 -32.537,-43.519 -35.267,-47.74c-84.739,-562.036 202.847,-929.189 564.789,-1240.83c384.97,-331.468 852.165,-603.422 1095.09,-957.428c160.265,-233.551 237.371,-644.124 262.645,-1097.04c36.922,-661.654 -31.972,-1414.28 -81.088,-1809.73c-26.406,-212.608 -162.53,-752.182 -318.039,-1127.03c-70.398,-169.69 -146.681,-306.17 -216.922,-371.105c-154.247,-142.593 -1092.17,-616.415 -1694.5,-974.247c-151.083,-89.755 -280.538,-172.014 -369.627,-239.633c-51.178,-38.844 -88.26,-70.618 -103.829,-96.281c-101.535,-167.374 -170.076,-507.741 -220.007,-915.796c-119.694,-978.206 -120.265,-2338.63 -120.265,-2723.62c-0,-37.944 -30.806,-68.75 -68.75,-68.75c-37.944,-0 -68.75,30.806 -68.75,68.75c-0,387.354 0.854,1756.11 121.283,2740.32c52.981,432.984 131.191,792.813 238.93,970.412c16.527,27.244 48.211,61.352 94.035,99.464c91.139,75.802 243.503,174.483 426.752,283.347c593.507,352.591 1519.4,816.496 1671.38,957.001c60.66,56.076 122.462,176.286 183.256,322.827c150.601,363.013 283.02,885.389 308.593,1091.29c48.448,390.077 116.673,1132.46 80.253,1785.12c-23.622,423.301 -88.947,808.62 -238.733,1026.9c-237.047,345.444 -695.77,607.577 -1071.43,931.029c-397.965,342.657 -705.287,750.397 -610.485,1369.23c2.406,15.707 10.026,36.487 25.495,60.302c22.045,33.938 64.035,80.891 120.905,135.817c300.521,290.248 1035.98,834.04 1165.96,910.077c173.062,101.234 1362.22,733.473 2146.03,1211.61c326.372,199.094 581.891,368.585 654.89,460.27c17.152,21.542 39.821,86.156 67.091,167.651c71.449,213.523 157.033,535.957 178.577,620.286l4.298,17.185Zm0.16,-27.363c6.504,-31.194 34.182,-54.656 67.295,-54.656c-16.819,0 -32.335,5.374 -45.959,17.621c-7.007,6.299 -17.344,17.187 -21.336,37.035Z" style="fill:#ff63c8;fill-opacity:0.2;"/></g><g><path d="M7516.97,-1104.15c-0,703.232 171.859,4102.07 -562.417,4841.29c-440.295,443.257 -4409.49,3037.47 -4341.02,3162.43c434.986,793.889 2984.4,553.318 3594.07,1579.47c664.382,1118.24 -530.849,1458.29 -993.222,2034.62c-251.418,313.387 909.491,2589.03 1097.24,3621.96" style="fill:none;stroke:#8676ff;stroke-width:116.67px;"/><path d="M7633.64,-978.989c0,703.232 171.859,4102.07 -562.416,4841.29c-440.296,443.257 -4409.49,3037.47 -4341.02,3162.43c434.987,793.889 2984.4,553.318 3594.08,1579.47c664.382,1118.24 -530.849,1458.29 -993.222,2034.63c-251.419,313.387 909.491,2589.03 1097.24,3621.96" style="fill:none;stroke:#8676ff;stroke-opacity:0.9;stroke-width:116.67px;"/><path d="M7750.3,-853.829c0,703.232 171.859,4102.07 -562.417,4841.29c-440.295,443.257 -4409.49,3037.47 -4341.02,3162.43c434.987,793.889 2984.4,553.318 3594.08,1579.47c664.381,1118.24 -530.85,1458.29 -993.222,2034.63c-251.419,313.386 909.491,2589.03 1097.24,3621.96" style="fill:none;stroke:#8676ff;stroke-opacity:0.8;stroke-width:116.67px;"/><path d="M7866.97,-728.669c-0,703.231 171.859,4102.07 -562.417,4841.29c-440.295,443.257 -4409.49,3037.47 -4341.02,3162.43c434.986,793.889 2984.4,553.318 3594.07,1579.47c664.382,1118.24 -530.849,1458.29 -993.222,2034.62c-251.418,313.387 909.491,2589.03 1097.24,3621.96" style="fill:none;stroke:#8676ff;stroke-opacity:0.7;stroke-width:116.67px;"/><path d="M7983.64,-603.509c0,703.231 171.859,4102.07 -562.416,4841.29c-440.296,443.258 -4409.49,3037.47 -4341.02,3162.43c434.987,793.889 2984.4,553.319 3594.08,1579.47c664.382,1118.24 -530.849,1458.29 -993.222,2034.62c-251.419,313.387 909.491,2589.03 1097.24,3621.96" style="fill:none;stroke:#8676ff;stroke-opacity:0.6;stroke-width:116.67px;"/><path d="M8100.3,-478.349c0,703.231 171.859,4102.07 -562.417,4841.29c-440.295,443.257 -4409.49,3037.47 -4341.02,3162.43c434.987,793.889 2984.4,553.319 3594.08,1579.47c664.381,1118.24 -530.85,1458.29 -993.222,2034.62c-251.419,313.387 909.491,2589.03 1097.24,3621.96" style="fill:none;stroke:#8676ff;stroke-opacity:0.5;stroke-width:116.67px;"/><path d="M8216.97,-353.19c-0,703.232 171.859,4102.07 -562.417,4841.29c-440.295,443.257 -4409.49,3037.47 -4341.02,3162.43c434.986,793.889 2984.4,553.319 3594.07,1579.47c664.382,1118.24 -530.849,1458.29 -993.222,2034.62c-251.418,313.387 909.491,2589.03 1097.24,3621.96" style="fill:none;stroke:#8676ff;stroke-opacity:0.4;stroke-width:116.67px;"/><path d="M8333.64,-228.03c0,703.232 171.859,4102.07 -562.416,4841.29c-440.296,443.257 -4409.49,3037.47 -4341.02,3162.43c434.987,793.889 2984.4,553.318 3594.08,1579.47c664.382,1118.24 -530.849,1458.29 -993.222,2034.62c-251.419,313.387 909.491,2589.03 1097.24,3621.96" style="fill:none;stroke:#8676ff;stroke-opacity:0.3;stroke-width:116.67px;"/><path d="M8450.3,-102.87c0,703.232 171.859,4102.07 -562.417,4841.29c-440.295,443.257 -4409.49,3037.47 -4341.02,3162.43c434.987,793.889 2984.4,553.318 3594.08,1579.47c664.381,1118.24 -530.85,1458.29 -993.222,2034.63c-251.419,313.387 909.491,2589.03 1097.24,3621.96" style="fill:none;stroke:#8676ff;stroke-opacity:0.2;stroke-width:116.67px;"/><path d="M8566.97,22.29c-0,703.232 171.859,4102.07 -562.417,4841.29c-440.295,443.257 -4409.49,3037.47 -4341.02,3162.43c434.986,793.889 2984.4,553.318 3594.07,1579.47c664.382,1118.24 -530.849,1458.29 -993.222,2034.63c-251.418,313.386 909.491,2589.03 1097.24,3621.96" style="fill:none;stroke:#8676ff;stroke-opacity:0.1;stroke-width:116.67px;"/></g></g></svg>